<svg width="1760" height="436" preserveAspectRatio="none" viewBox="0 0 1760 436" fill="none" xmlns="http://www.w3.org/2000/svg">
<g clip-path="url(#clip0_422_5)">
<path d="M0.5 -348.5V435.5H57.5V404.5H113.496V435.5H160.5V404.5H216.5V435.5H269.5V349.5H311.5V315.5H366.5V349.5H413.5V315.5H476.5V349.5H517.543V350L517.5 435.5H564.5V404.5H627.5V435.5H673.5V404.5H733.5V435.5H773.5V404.5H832.5V435.5H882.5V404.5H942.5V435.5H985.5V349.5H1033.5V315.5H1086.5V349.5H1136.5V315.5H1192.5V349.5H1242.5V297H1286.5V251.5H1346.5V297H1389.5V274H1452.5V339.5H1493.5V435.5H1543.5V404.5H1603.5V435.5H1646.5V404.5H1705.5V435.5H1759.5V-348.5H0.5Z" fill="url(#paint0_linear_422_5)" stroke="black"/>
<mask id="path-3-inside-1_422_5" fill="white">
<path d="M0 40C0 17.9086 17.9086 0 40 0H1720C1742.09 0 1760 17.9086 1760 40V436H0V40Z"/>
</mask>
<path d="M-1 40C-1 17.3563 17.3563 -1 40 -1H1720C1742.64 -1 1761 17.3563 1761 40H1759C1759 18.4609 1741.54 1 1720 1H40C18.4609 1 1 18.4609 1 40H-1ZM1760 436H0H1760ZM-1 436V40C-1 17.3563 17.3563 -1 40 -1V1C18.4609 1 1 18.4609 1 40V436H-1ZM1720 -1C1742.64 -1 1761 17.3563 1761 40V436H1759V40C1759 18.4609 1741.54 1 1720 1V-1Z" fill="black" mask="url(#path-3-inside-1_422_5)"/>
</g>
<defs>
<linearGradient id="paint0_linear_422_5" x1="559.5" y1="-349" x2="545.5" y2="436" gradientUnits="userSpaceOnUse">
<stop stop-color="white"/>
<stop offset="1" stop-color="#E8E3CE"/>
</linearGradient>
<clipPath id="clip0_422_5">
<path d="M0 40C0 17.9086 17.9086 0 40 0H1720C1742.09 0 1760 17.9086 1760 40V436H0V40Z" fill="white"/>
</clipPath>
</defs>
</svg>
