<svg width="48" height="48" viewBox="0 0 48 48" fill="none" xmlns="http://www.w3.org/2000/svg">
<rect width="48" height="48" rx="5" fill="#FFEE00"/>
<path d="M24 14.9378V35.8269M18.05 19.1156H14.9M19.1 23.2934H14.9M38 30.6045V13.7958C38 12.1247 36.628 10.8852 34.962 11.0245H34.878C31.938 11.2752 27.472 12.7653 24.98 14.325L24.742 14.4782C24.336 14.7288 23.664 14.7288 23.258 14.4782L22.908 14.2693C20.416 12.7235 15.964 11.2473 13.024 11.0106C11.358 10.8713 10 12.1247 10 13.7819V30.6045C10 31.9414 11.092 33.1947 12.436 33.3618L12.842 33.4175C15.88 33.8214 20.57 35.3532 23.258 36.8155L23.314 36.8433C23.692 37.0522 24.294 37.0522 24.658 36.8433C27.346 35.3672 32.05 33.8214 35.102 33.4175L35.564 33.3618C36.908 33.1947 38 31.9414 38 30.6045Z" stroke="black" stroke-width="1.5" stroke-linecap="round" stroke-linejoin="round"/>
</svg>
