<svg width="34" height="34" viewBox="0 0 34 34" fill="none" xmlns="http://www.w3.org/2000/svg">
<rect width="34" height="34" rx="10" fill="#FFEE00"/>
<path d="M21.6897 15.0134L19.3721 12.6958M10.4809 23.9054C11.1221 24.5466 12.1573 24.5466 12.7985 23.9054L22.8414 13.8625C23.4826 13.2213 23.4826 12.1861 22.8414 11.5449C22.2002 10.9037 21.165 10.9037 20.5238 11.5449L10.4809 21.5878C9.8397 22.229 9.8397 23.2642 10.4809 23.9054ZM14.3424 9.9532L15.5012 9.61328L15.1613 10.7721L15.5012 11.9309L14.3424 11.591L13.1836 11.9309L13.5235 10.7721L13.1836 9.61328L14.3424 9.9532ZM12.6602 15.179L13.5352 14.9224L13.2785 15.7974L13.5352 16.6724L12.6602 16.4157L11.7852 16.6724L12.0418 15.7974L11.7852 14.9224L12.6602 15.179ZM22.8404 18.4517L23.9992 18.1118L23.6593 19.2706L23.9992 20.4294L22.8404 20.0895L21.6816 20.4294L22.0216 19.2706L21.6816 18.1118L22.8404 18.4517Z" stroke="#292D32" stroke-width="0.772533" stroke-linecap="round" stroke-linejoin="round"/>
</svg>
