<svg width="34" height="34" viewBox="0 0 34 34" fill="none" xmlns="http://www.w3.org/2000/svg">
<rect width="34" height="34" rx="10" fill="#FFEE00"/>
<path d="M24 16.23V11.47C24 10.42 23.552 10 22.439 10H19.611C18.498 10 18.05 10.42 18.05 11.47V16.23C18.05 17.28 18.498 17.7 19.611 17.7H22.439C23.552 17.7 24 17.28 24 16.23Z" stroke="#292D32" stroke-linecap="round" stroke-linejoin="round"/>
<path d="M24 22.53V21.27C24 20.22 23.552 19.8 22.439 19.8H19.611C18.498 19.8 18.05 20.22 18.05 21.27V22.53C18.05 23.58 18.498 24 19.611 24H22.439C23.552 24 24 23.58 24 22.53Z" stroke="#292D32" stroke-linecap="round" stroke-linejoin="round"/>
<path d="M15.95 17.77V22.53C15.95 23.58 15.502 24 14.389 24H11.561C10.448 24 10 23.58 10 22.53V17.77C10 16.72 10.448 16.3 11.561 16.3H14.389C15.502 16.3 15.95 16.72 15.95 17.77Z" stroke="#292D32" stroke-linecap="round" stroke-linejoin="round"/>
<path d="M15.95 11.47V12.73C15.95 13.78 15.502 14.2 14.389 14.2H11.561C10.448 14.2 10 13.78 10 12.73V11.47C10 10.42 10.448 10 11.561 10H14.389C15.502 10 15.95 10.42 15.95 11.47Z" stroke="#292D32" stroke-linecap="round" stroke-linejoin="round"/>
</svg>
