<svg width="34" height="34" viewBox="0 0 34 34" fill="none" xmlns="http://www.w3.org/2000/svg">
<rect width="34" height="34" rx="10" fill="#FFEE00"/>
<path d="M12.1403 16.3536C8.61991 16.596 8.61991 21.5981 12.1403 21.8405H13.5846M13.5846 21.8405C13.6447 21.9727 13.7124 22.0976 13.7876 22.2151C14.4345 23.2802 15.6305 24 16.9995 24C18.3686 24 19.5646 23.2802 20.2115 22.2151C20.2867 22.0976 20.3544 21.9727 20.4146 21.8405M13.5846 21.8405C13.3589 21.3851 13.2385 20.8709 13.2385 20.3274C13.2385 18.3001 14.9234 16.6547 16.9995 16.6547C19.0757 16.6547 20.7606 18.3001 20.7606 20.3274C20.7606 20.8709 20.6403 21.3851 20.4146 21.8405M12.1779 16.3536C9.76328 9.79428 19.9482 7.17202 21.1142 14.0619C24.3713 14.4659 25.6876 18.7041 23.2204 20.8122C22.4682 21.4806 21.4978 21.8478 20.4823 21.8405H20.4146M15.826 20.3274L16.5707 21.0546L18.1729 19.6075" stroke="#292D32" stroke-width="0.875" stroke-linecap="round" stroke-linejoin="round"/>
</svg>
