<svg width="24" height="24" viewBox="0 0 24 24" fill="none" xmlns="http://www.w3.org/2000/svg">
<path d="M8.67189 14.3298C8.67189 15.6198 9.66189 16.6598 10.8919 16.6598H13.4019C14.4719 16.6598 15.3419 15.7498 15.3419 14.6298C15.3419 13.4098 14.8119 12.9798 14.0219 12.6998L9.99189 11.2998C9.20189 11.0198 8.67189 10.5898 8.67189 9.36982C8.67189 8.24982 9.54189 7.33982 10.6119 7.33982H13.1219C14.3519 7.33982 15.3419 8.37982 15.3419 9.66982M12 5.99999V18M12 22C17.5228 22 22 17.5228 22 12C22 6.47715 17.5228 2 12 2C6.47715 2 2 6.47715 2 12C2 17.5228 6.47715 22 12 22Z" stroke="#00C742" stroke-linecap="round" stroke-linejoin="round"/>
</svg>
