<svg width="24" height="24" viewBox="0 0 24 24" fill="none" xmlns="http://www.w3.org/2000/svg">
<path d="M9 22H15C20 22 22 20 22 15V9C22 4 20 2 15 2H9C4 2 2 4 2 9V15C2 20 4 22 9 22Z" stroke="#00C742" stroke-miterlimit="10" stroke-linecap="round" stroke-linejoin="round"/>
<path d="M15.5 9.74999C16.3284 9.74999 17 9.07842 17 8.24999C17 7.42156 16.3284 6.74999 15.5 6.74999C14.6716 6.74999 14 7.42156 14 8.24999C14 9.07842 14.6716 9.74999 15.5 9.74999Z" stroke="#00C742" stroke-miterlimit="10" stroke-linecap="round" stroke-linejoin="round"/>
<path d="M8.49998 9.74999C9.32841 9.74999 9.99998 9.07842 9.99998 8.24999C9.99998 7.42156 9.32841 6.74999 8.49998 6.74999C7.67155 6.74999 6.99998 7.42156 6.99998 8.24999C6.99998 9.07842 7.67155 9.74999 8.49998 9.74999Z" stroke="#00C742" stroke-miterlimit="10" stroke-linecap="round" stroke-linejoin="round"/>
<path d="M8.39999 13.3H15.6C16.1 13.3 16.5 13.7 16.5 14.2C16.5 16.69 14.49 18.7 12 18.7C9.50999 18.7 7.49999 16.69 7.49999 14.2C7.49999 13.7 7.89999 13.3 8.39999 13.3Z" stroke="#00C742" stroke-miterlimit="10" stroke-linecap="round" stroke-linejoin="round"/>
</svg>
