<svg width="24" height="24" viewBox="0 0 24 24" fill="none" xmlns="http://www.w3.org/2000/svg">
<path d="M7.63 22.0002H17.74C19.81 22.0002 21.5 20.3102 21.5 18.2402V17.0502H19.6C18.52 17.0502 17.53 16.2602 17.44 15.1802C17.38 14.5502 17.62 13.9602 18.04 13.5502C18.41 13.1702 18.92 12.9502 19.48 12.9502H21.5V11.5102C21.5 9.44025 19.81 7.75023 17.74 7.75023H6.25999C4.18999 7.75023 2.5 9.44025 2.5 11.5102V15.8802M7.63 22.0002C7.94 21.7402 8.21 21.4202 8.42 21.0602C8.79 20.4602 9 19.7502 9 19.0002C9 16.7902 7.21 15.0002 5 15.0002C4.06 15.0002 3.19 15.3302 2.5 15.8802M7.63 22.0002C6.93 22.6302 6.01 23.0002 5 23.0002C3.54 23.0002 2.27 22.2202 1.58 21.0602C1.21 20.4602 1 19.7502 1 19.0002C1 17.7402 1.58 16.6102 2.5 15.8802M2.5 12.4103V7.84034C2.5 6.65034 3.23 5.5903 4.34 5.1703L12.28 2.1703C13.52 1.7003 14.85 2.62033 14.85 3.95033V7.75032M7 12.0002H14M3.44137 18.9998L4.43136 19.9898L6.56136 18.0198M22.5587 13.9705V16.0305C22.5587 16.5805 22.1187 17.0305 21.5587 17.0505H19.5988C18.5188 17.0505 17.5288 16.2605 17.4388 15.1805C17.3788 14.5505 17.6188 13.9605 18.0388 13.5505C18.4088 13.1705 18.9187 12.9505 19.4787 12.9505H21.5587C22.1187 12.9705 22.5587 13.4205 22.5587 13.9705Z" stroke="#00C742" stroke-linecap="round" stroke-linejoin="round"/>
</svg>
