<svg width="20" height="20" viewBox="0 0 20 20" fill="none" xmlns="http://www.w3.org/2000/svg">
<path d="M13.275 9.54742L6.30875 2.90992C6.19251 2.79912 6.03808 2.7373 5.8775 2.7373C5.71691 2.7373 5.56248 2.79912 5.44625 2.90992L5.43875 2.91742C5.3822 2.97114 5.33718 3.0358 5.30641 3.10746C5.27564 3.17913 5.25978 3.25631 5.25978 3.3343C5.25978 3.41229 5.27564 3.48947 5.30641 3.56113C5.33718 3.6328 5.3822 3.69746 5.43875 3.75117L11.9987 10.0012L5.43875 16.2487C5.3822 16.3024 5.33718 16.367 5.30641 16.4387C5.27564 16.5104 5.25978 16.5876 5.25978 16.6655C5.25978 16.7435 5.27564 16.8207 5.30641 16.8924C5.33718 16.964 5.3822 17.0287 5.43875 17.0824L5.44625 17.0899C5.56248 17.2007 5.71691 17.2625 5.8775 17.2625C6.03808 17.2625 6.19251 17.2007 6.30875 17.0899L13.275 10.4524C13.3363 10.3941 13.385 10.3238 13.4184 10.2461C13.4517 10.1683 13.4689 10.0845 13.4689 9.99992C13.4689 9.9153 13.4517 9.83156 13.4184 9.75378C13.385 9.676 13.3363 9.6058 13.275 9.54742Z" fill="#00C742"/>
</svg>
