<svg width="34" height="34" viewBox="0 0 34 34" fill="none" xmlns="http://www.w3.org/2000/svg">
<rect width="34" height="34" rx="10" fill="#FFEE00"/>
<path d="M19.25 10.943C18.5975 11.2055 17.9975 11.4979 17.525 11.7904L17.3975 11.8728C17.18 12.0078 16.82 12.0078 16.6025 11.8728L16.415 11.7604C15.08 10.928 12.695 10.1332 11.12 10.0057C10.2275 9.93071 9.5 10.6056 9.5 11.4979V20.5563C9.5 21.2762 10.085 21.951 10.805 22.041L11.0225 22.0711C12.65 22.2885 15.1625 23.1134 16.6025 23.9007L16.6325 23.9156C16.835 24.0281 17.1575 24.0281 17.3525 23.9156C18.7925 23.1208 21.3125 22.2885 22.9475 22.0711L23.195 22.041C23.915 21.951 24.5 21.2762 24.5 20.5563V11.5054C24.5 10.6056 23.765 9.93821 22.8725 10.0132H22.8275C22.6475 10.0282 22.4525 10.0507 22.25 10.0882M19.25 10.943V14.0025L20.75 13.0051L22.25 14.0025V10.0882M19.25 10.943C20.2325 10.5531 21.3275 10.2382 22.25 10.0882M17 12.1203V23.3683" stroke="#292D32" stroke-width="0.875" stroke-linecap="round" stroke-linejoin="round"/>
</svg>
