<svg width="48" height="48" viewBox="0 0 48 48" fill="none" xmlns="http://www.w3.org/2000/svg">
<rect width="48" height="48" rx="10" fill="#FFEE00"/>
<path d="M19.9905 11.8163C15.4829 11.8163 11.8163 15.4829 11.8163 19.9905C11.8163 24.4982 15.4829 28.1648 19.9905 28.1648C24.4982 28.1648 28.1648 24.4982 28.1648 19.9905C28.1648 15.4829 24.4982 11.8163 19.9905 11.8163ZM19.9905 27.2565C15.9779 27.2565 12.7246 24.0032 12.7246 19.9905C12.7246 15.9779 15.9779 12.7246 19.9905 12.7246C24.0032 12.7246 27.2565 15.9779 27.2565 19.9905C27.2565 24.0032 24.0032 27.2565 19.9905 27.2565ZM29.3392 26.9904L29.073 27.2565L27.8978 26.0813C29.4736 24.0377 30.2883 21.3774 29.8741 18.5137C29.2611 14.2749 25.886 10.8181 21.6581 10.1351C14.839 9.03252 9.03252 14.839 10.1351 21.6581C10.8181 25.886 14.2749 29.2611 18.5137 29.8741C21.3774 30.2883 24.0386 29.4736 26.0813 27.8978L27.2565 29.073L26.9904 29.3392C26.6362 29.6943 26.6362 30.2692 26.9904 30.6234L33.6143 37.2473C34.6179 38.2509 36.2437 38.2509 37.2473 37.2473C38.2509 36.2437 38.2509 34.6179 37.2473 33.6143L30.6234 26.9904C30.2692 26.6362 29.6934 26.6362 29.3392 26.9904ZM10.9081 19.9905C10.9081 14.9825 14.9825 10.9081 19.9905 10.9081C24.9986 10.9081 29.073 14.9825 29.073 19.9905C29.073 24.9986 24.9986 29.073 19.9905 29.073C14.9825 29.073 10.9081 24.9986 10.9081 19.9905ZM26.7761 27.3083C26.9605 27.1376 27.1376 26.9605 27.3083 26.7761L28.4309 27.8987L27.8987 28.4309L26.7761 27.3083ZM27.6153 29.9631L29.9749 27.6262L36.6052 34.2564C37.2536 34.9049 37.2536 35.9567 36.6052 36.6052C35.9567 37.2536 34.9049 37.2536 34.2564 36.6052L27.6153 29.9631Z" fill="#0B1719"/>
</svg>
