<svg width="48" height="48" viewBox="0 0 48 48" fill="none" xmlns="http://www.w3.org/2000/svg">
<rect width="48" height="48" rx="10" fill="#FFEE00"/>
<g clip-path="url(#clip0_157_592)">
<path d="M36.8778 27.5953C36.8778 27.0282 36.434 26.568 35.8872 26.568H32.9154C32.3686 26.568 31.9248 27.0282 31.9248 27.5953V28.6226H30.9342V27.5953C30.9342 27.0282 30.4904 26.568 29.9436 26.568H26.9718C26.425 26.568 25.9812 27.0282 25.9812 27.5953V28.6226H24.9906V13.2132C24.9906 12.6462 24.5468 12.1859 24 12.1859V11.1586C24 10.5916 23.5562 10.1313 23.0094 10.1313H20.0376C19.4908 10.1313 19.047 10.5916 19.047 11.1586V12.1859C18.5002 12.1859 18.0564 12.6462 18.0564 13.2132V20.4043H17.0658V19.377C17.0658 18.8099 16.622 18.3497 16.0752 18.3497H13.1034C12.5566 18.3497 12.1128 18.8099 12.1128 19.377V20.4043H11.1222C10.5754 20.4043 10.1316 20.8645 10.1316 21.4315V36.8409C10.1316 37.408 10.5754 37.8682 11.1222 37.8682H36.8778C37.4246 37.8682 37.8684 37.408 37.8684 36.8409V29.6499C37.8684 29.0828 37.4246 28.6226 36.8778 28.6226V27.5953ZM32.9154 27.5953H35.8872V28.6226H32.9154V27.5953ZM26.9718 27.5953H29.9436V28.6226H26.9718V27.5953ZM20.0376 11.1586H23.0094V12.1859H20.0376V11.1586ZM19.047 13.2132H24V20.4043H19.047V13.2132ZM13.1034 19.377H16.0752V20.4043H13.1034V19.377ZM11.1222 21.4315H24V28.6226H11.1222V21.4315ZM36.8778 36.8409H11.1222V29.6499H36.8778V36.8409Z" fill="black"/>
</g>
<defs>
<clipPath id="clip0_157_592">
<rect width="28" height="28" fill="white" transform="translate(10 10)"/>
</clipPath>
</defs>
</svg>
