<svg width="122" height="22" viewBox="0 0 122 22" fill="none" xmlns="http://www.w3.org/2000/svg">
<path d="M12.5855 3.21742L14.1989 6.44409C14.4189 6.89326 15.0055 7.32409 15.5005 7.40659L18.4247 7.89242C20.2947 8.20409 20.7347 9.56075 19.3872 10.8991L17.1139 13.1724C16.7289 13.5574 16.518 14.2999 16.6372 14.8316L17.288 17.6457C17.8014 19.8732 16.6189 20.7349 14.648 19.5707L11.9072 17.9482C11.4122 17.6549 10.5964 17.6549 10.0922 17.9482L7.35134 19.5707C5.38967 20.7349 4.19801 19.8641 4.71134 17.6457L5.36217 14.8316C5.48134 14.2999 5.27051 13.5574 4.88551 13.1724L2.61217 10.8991C1.27384 9.56075 1.70467 8.20409 3.57467 7.89242L6.49884 7.40659C6.98467 7.32409 7.57134 6.89326 7.79134 6.44409L9.4047 3.21742C10.2847 1.46659 11.7147 1.46659 12.5855 3.21742Z" fill="#FFEE00"/>
<path d="M37.5855 3.21742L39.1989 6.44409C39.4189 6.89326 40.0055 7.32409 40.5005 7.40659L43.4247 7.89242C45.2947 8.20409 45.7347 9.56075 44.3872 10.8991L42.1139 13.1724C41.7289 13.5574 41.518 14.2999 41.6372 14.8316L42.288 17.6457C42.8014 19.8732 41.6189 20.7349 39.648 19.5707L36.9072 17.9482C36.4122 17.6549 35.5964 17.6549 35.0922 17.9482L32.3513 19.5707C30.3897 20.7349 29.198 19.8641 29.7113 17.6457L30.3622 14.8316C30.4813 14.2999 30.2705 13.5574 29.8855 13.1724L27.6122 10.8991C26.2738 9.56075 26.7047 8.20409 28.5747 7.89242L31.4988 7.40659C31.9847 7.32409 32.5713 6.89326 32.7913 6.44409L34.4047 3.21742C35.2847 1.46659 36.7147 1.46659 37.5855 3.21742Z" fill="#FFEE00"/>
<path d="M62.5855 3.21742L64.1989 6.44409C64.4189 6.89326 65.0055 7.32409 65.5005 7.40659L68.4247 7.89242C70.2947 8.20409 70.7347 9.56075 69.3872 10.8991L67.1139 13.1724C66.7289 13.5574 66.518 14.2999 66.6372 14.8316L67.288 17.6457C67.8014 19.8732 66.6189 20.7349 64.648 19.5707L61.9072 17.9482C61.4122 17.6549 60.5964 17.6549 60.0922 17.9482L57.3513 19.5707C55.3897 20.7349 54.198 19.8641 54.7113 17.6457L55.3622 14.8316C55.4813 14.2999 55.2705 13.5574 54.8855 13.1724L52.6122 10.8991C51.2738 9.56075 51.7047 8.20409 53.5747 7.89242L56.4988 7.40659C56.9847 7.32409 57.5713 6.89326 57.7913 6.44409L59.4047 3.21742C60.2847 1.46659 61.7147 1.46659 62.5855 3.21742Z" fill="#FFEE00"/>
<path d="M87.5855 3.21742L89.1989 6.44409C89.4189 6.89326 90.0055 7.32409 90.5005 7.40659L93.4247 7.89242C95.2947 8.20409 95.7347 9.56075 94.3872 10.8991L92.1139 13.1724C91.7289 13.5574 91.518 14.2999 91.6372 14.8316L92.288 17.6457C92.8014 19.8732 91.6189 20.7349 89.648 19.5707L86.9072 17.9482C86.4122 17.6549 85.5964 17.6549 85.0922 17.9482L82.3513 19.5707C80.3897 20.7349 79.198 19.8641 79.7113 17.6457L80.3622 14.8316C80.4813 14.2999 80.2705 13.5574 79.8855 13.1724L77.6122 10.8991C76.2738 9.56075 76.7047 8.20409 78.5747 7.89242L81.4988 7.40659C81.9847 7.32409 82.5713 6.89326 82.7913 6.44409L84.4047 3.21742C85.2847 1.46659 86.7147 1.46659 87.5855 3.21742Z" fill="#FFEE00"/>
<path d="M112.586 3.21742L114.199 6.44409C114.419 6.89326 115.006 7.32409 115.501 7.40659L118.425 7.89242C120.295 8.20409 120.735 9.56075 119.387 10.8991L117.114 13.1724C116.729 13.5574 116.518 14.2999 116.637 14.8316L117.288 17.6457C117.801 19.8732 116.619 20.7349 114.648 19.5707L111.907 17.9482C111.412 17.6549 110.596 17.6549 110.092 17.9482L107.351 19.5707C105.39 20.7349 104.198 19.8641 104.711 17.6457L105.362 14.8316C105.481 14.2999 105.271 13.5574 104.886 13.1724L102.612 10.8991C101.274 9.56075 101.705 8.20409 103.575 7.89242L106.499 7.40659C106.985 7.32409 107.571 6.89326 107.791 6.44409L109.405 3.21742C110.285 1.46659 111.715 1.46659 112.586 3.21742Z" fill="#FFEE00"/>
</svg>
