<svg width="48" height="48" viewBox="0 0 48 48" fill="none" xmlns="http://www.w3.org/2000/svg">
<rect width="48" height="48" rx="10" fill="#FFEE00"/>
<path d="M28 24.4997C28 24.7756 27.7759 24.9996 27.4999 24.9996H20.4998C20.2238 24.9996 19.9998 24.7756 19.9998 24.4997C19.9998 24.2237 20.2238 23.9997 20.4998 23.9997H27.4999C27.7759 23.9997 28 24.2237 28 24.4997ZM27.4999 25.9996H20.4998C20.2238 25.9996 19.9998 26.2236 19.9998 26.4996C19.9998 26.7756 20.2238 26.9996 20.4998 26.9996H27.4999C27.7759 26.9996 28 26.7756 28 26.4996C28 26.2236 27.7759 25.9996 27.4999 25.9996ZM37.8871 25.8026C37.0971 32.1285 31.938 37.2035 25.6019 37.9105C22.1318 38.2974 18.8858 37.4085 16.2597 35.6625L11.6276 37.7215C11.2496 37.8895 10.8066 37.8075 10.5146 37.5145L10.4856 37.4855C10.1926 37.1925 10.1106 36.7505 10.2786 36.3725L12.3377 31.7405C10.5906 29.1146 9.7026 25.8686 10.0896 22.3987C10.7956 16.0618 15.8707 10.9029 22.1968 10.1129C31.342 8.97088 39.0292 16.6578 37.8871 25.8026ZM36.7901 22.1227C35.9971 16.5238 31.476 12.0028 25.8769 11.2098C17.1727 9.97786 9.79961 17.4828 11.2626 26.2206C11.5696 28.0536 12.3297 29.7836 13.3587 31.3316L13.5617 31.6365L11.3206 36.6785L16.3627 34.4375L16.6677 34.6405C18.2158 35.6695 19.9458 36.4295 21.7788 36.7365C30.517 38.1994 38.0231 30.8266 36.7901 22.1227ZM27.4999 19.9997H20.4998C20.2238 19.9997 19.9998 20.2237 19.9998 20.4997C19.9998 20.7757 20.2238 20.9997 20.4998 20.9997H27.4999C27.7759 20.9997 28 20.7757 28 20.4997C28 20.2237 27.7759 19.9997 27.4999 19.9997ZM27.4999 21.9997H20.4998C20.2238 21.9997 19.9998 22.2237 19.9998 22.4997C19.9998 22.7757 20.2238 22.9997 20.4998 22.9997H27.4999C27.7759 22.9997 28 22.7757 28 22.4997C28 22.2237 27.7759 21.9997 27.4999 21.9997Z" fill="#0B1719"/>
</svg>
