<svg width="48" height="48" viewBox="0 0 48 48" fill="none" xmlns="http://www.w3.org/2000/svg">
<rect width="48" height="48" rx="10" fill="#FFEE00"/>
<path d="M24 10C17.6742 10 13.5 15.0148 13.5 21.2C13.5 26.5881 18.0446 30.706 19.6377 31.9847C19.841 32.148 20.0778 32.2591 20.3279 32.3263L20.87 35.5071C21.0237 36.4068 21.8208 37.0667 22.7534 37.0667H23.0455C23.0455 37.5819 23.4731 38 24 38C24.5269 38 24.9545 37.5819 24.9545 37.0667H25.2466C26.1802 37.0667 26.9763 36.4068 27.13 35.5071L27.6721 32.3263C27.9222 32.2591 28.159 32.148 28.3623 31.9847C29.9554 30.706 34.5 26.5881 34.5 21.2C34.5 15.0148 30.3258 10 24 10ZM25.2466 36.1333H22.7534C22.2866 36.1333 21.8885 35.8039 21.8122 35.3531L21.3082 32.4H26.6909L26.1878 35.3531C26.1115 35.8029 25.7134 36.1333 25.2466 36.1333ZM27.7571 31.2632C27.5929 31.3948 27.382 31.4667 27.1615 31.4667H20.8385C20.618 31.4667 20.4071 31.3948 20.2439 31.2632C18.8855 30.174 14.4545 26.2279 14.4545 21.2C14.4545 15.2509 18.4694 10.9333 24 10.9333C29.5306 10.9333 33.5455 15.2509 33.5455 21.2C33.5455 26.2279 29.1145 30.174 27.7571 31.2632ZM26.8636 24.9333C26.4675 24.9333 26.1 25.0509 25.7945 25.2535C25.5349 24.5255 24.8333 24 24 24C23.1667 24 22.4651 24.5255 22.2055 25.2535C21.9 25.0509 21.5325 24.9333 21.1364 24.9333C20.0816 24.9333 19.2273 25.7687 19.2273 26.8C19.2273 27.8313 20.0816 28.6667 21.1364 28.6667C21.4857 28.6667 21.8093 28.5677 22.0909 28.4081V31.4667H23.0455V27.4739C23.327 27.6344 23.6506 27.7333 24 27.7333C24.3494 27.7333 24.673 27.6344 24.9545 27.4748V31.4667H25.9091V28.4081C26.1907 28.5677 26.5143 28.6667 26.8636 28.6667C27.9184 28.6667 28.7727 27.8313 28.7727 26.8C28.7727 25.7687 27.9184 24.9333 26.8636 24.9333ZM21.1364 27.7333C20.6104 27.7333 20.1818 27.3143 20.1818 26.8C20.1818 26.2857 20.6104 25.8667 21.1364 25.8667C21.6623 25.8667 22.0909 26.2857 22.0909 26.8C22.0909 27.3143 21.6623 27.7333 21.1364 27.7333ZM24 26.8C23.474 26.8 23.0455 26.3809 23.0455 25.8667C23.0455 25.3524 23.474 24.9333 24 24.9333C24.526 24.9333 24.9545 25.3524 24.9545 25.8667C24.9545 26.3809 24.5269 26.8 24 26.8ZM26.8636 27.7333C26.3377 27.7333 25.9091 27.3143 25.9091 26.8C25.9091 26.2857 26.3377 25.8667 26.8636 25.8667C27.3896 25.8667 27.8182 26.2857 27.8182 26.8C27.8182 27.3143 27.3905 27.7333 26.8636 27.7333Z" fill="#0B1719"/>
</svg>
