<svg width="48" height="48" viewBox="0 0 48 48" fill="none" xmlns="http://www.w3.org/2000/svg">
<rect width="48" height="48" rx="10" fill="#FFEE00"/>
<path d="M23 17H22V13H22.707L25 15.293V13H26V17H25.293L23 14.707V17ZM38 24C38 31.732 31.732 38 24 38C16.268 38 10 31.732 10 24C10 16.268 16.268 10 24 10C31.732 10 38 16.268 38 24ZM37 24C37 16.832 31.168 11 24 11C16.832 11 11 16.832 11 24C11 31.168 16.832 37 24 37C31.168 37 37 31.168 37 24ZM26.406 22.407L30.281 29.604C30.516 30.041 30.04 30.516 29.604 30.281L22.407 26.406C22.062 26.22 21.78 25.938 21.594 25.593L17.719 18.396C17.484 17.96 17.96 17.484 18.396 17.719L25.593 21.594C25.938 21.78 26.22 22.062 26.406 22.407ZM28.61 28.61L25.383 22.617L19.39 19.39L22.617 25.383L28.61 28.61ZM23.293 23.293C22.902 23.684 22.902 24.317 23.293 24.707C23.684 25.098 24.317 25.098 24.707 24.707C25.098 24.316 25.098 23.683 24.707 23.293C24.317 22.902 23.683 22.902 23.293 23.293Z" fill="#0B1719"/>
</svg>
