<svg width="34" height="34" viewBox="0 0 34 34" fill="none" xmlns="http://www.w3.org/2000/svg">
<rect width="34" height="34" rx="10" fill="#FFEE00"/>
<path d="M24 19.1C24 21.809 21.809 24 19.1 24L19.835 22.775M10 14.9C10 12.191 12.191 10 14.9 10L14.165 11.225M16.3 19.905V21.795C16.3 23.37 15.67 24 14.095 24H12.205C10.63 24 10 23.37 10 21.795V19.905C10 18.33 10.63 17.7 12.205 17.7H14.095C15.67 17.7 16.3 18.33 16.3 19.905ZM20.85 16.3C22.5897 16.3 24 14.8897 24 13.15C24 11.4103 22.5897 10 20.85 10C19.1103 10 17.7 11.4103 17.7 13.15C17.7 14.8897 19.1103 16.3 20.85 16.3Z" stroke="#292D32" stroke-linecap="round" stroke-linejoin="round"/>
</svg>
