<svg width="34" height="34" viewBox="0 0 34 34" fill="none" xmlns="http://www.w3.org/2000/svg">
<rect width="34" height="34" rx="10" fill="#FFEE00"/>
<path d="M12.8909 21.3051C12.8909 21.595 13.126 21.8301 13.4159 21.8301C13.7059 21.8301 13.9409 21.595 13.9409 21.3051H12.8909ZM13.9409 19.8561C13.9409 19.5661 13.7059 19.3311 13.4159 19.3311C13.126 19.3311 12.8909 19.5661 12.8909 19.8561H13.9409ZM16.475 21.305C16.475 21.595 16.71 21.83 17 21.83C17.2899 21.83 17.525 21.595 17.525 21.305H16.475ZM17.525 18.407C17.525 18.1171 17.2899 17.882 17 17.882C16.71 17.882 16.475 18.1171 16.475 18.407H17.525ZM20.0591 21.3049C20.0591 21.5949 20.2941 21.8299 20.5841 21.8299C20.874 21.8299 21.1091 21.5949 21.1091 21.3049H20.0591ZM21.1091 16.9509C21.1091 16.661 20.874 16.4259 20.5841 16.4259C20.2941 16.4259 20.0591 16.661 20.0591 16.9509H21.1091ZM20.5839 12.6951L21.1089 12.6951L21.1089 12.1701H20.5839V12.6951ZM20.2619 13.0731L20.6608 13.4144L20.6616 13.4135L20.2619 13.0731ZM13.2889 16.7917C13.0076 16.8618 12.8364 17.1468 12.9065 17.4281C12.9767 17.7094 13.2616 17.8806 13.5429 17.8105L13.2889 16.7917ZM18.5329 12.1701C18.243 12.1701 18.0079 12.4051 18.0079 12.6951C18.0079 12.985 18.243 13.2201 18.5329 13.2201V12.1701ZM20.0589 14.7391C20.0589 15.029 20.294 15.2641 20.5839 15.2641C20.8739 15.2641 21.1089 15.029 21.1089 14.7391L20.0589 14.7391ZM13.4159 21.3051H13.9409V19.8561H13.4159H12.8909V21.3051H13.4159ZM17 21.305H17.525V18.407H17H16.475V21.305H17ZM20.5841 21.3049H21.1091V16.9509H20.5841H20.0591V21.3049H20.5841ZM20.5839 12.6951L20.1843 12.3546L19.8623 12.7326L20.2619 13.0731L20.6616 13.4135L20.9836 13.0355L20.5839 12.6951ZM20.2619 13.0731L19.863 12.7317C18.1492 14.7345 15.8504 16.153 13.2889 16.7917L13.4159 17.3011L13.5429 17.8105C16.3154 17.1192 18.8046 15.5836 20.6608 13.4144L20.2619 13.0731ZM18.5329 12.6951V13.2201H20.5839V12.6951V12.1701H18.5329V12.6951ZM20.5839 12.6951L20.0589 12.6951L20.0589 14.7391L20.5839 14.7391L21.1089 14.7391L21.1089 12.6951L20.5839 12.6951ZM14.9 24V24.525H19.1V24V23.475H14.9V24ZM19.1 24V24.525C20.9018 24.525 22.2996 24.1679 23.2337 23.2337C24.1679 22.2996 24.525 20.9018 24.525 19.1H24H23.475C23.475 20.7982 23.1321 21.8504 22.4913 22.4913C21.8504 23.1321 20.7982 23.475 19.1 23.475V24ZM24 19.1H24.525V14.9H24H23.475V19.1H24ZM24 14.9H24.525C24.525 13.0982 24.1679 11.7004 23.2337 10.7663C22.2996 9.83214 20.9018 9.475 19.1 9.475V10V10.525C20.7982 10.525 21.8504 10.8679 22.4913 11.5087C23.1321 12.1496 23.475 13.2018 23.475 14.9H24ZM19.1 10V9.475H14.9V10V10.525H19.1V10ZM14.9 10V9.475C13.0982 9.475 11.7004 9.83214 10.7663 10.7663C9.83214 11.7004 9.475 13.0982 9.475 14.9H10H10.525C10.525 13.2018 10.8679 12.1496 11.5087 11.5087C12.1496 10.8679 13.2018 10.525 14.9 10.525V10ZM10 14.9H9.475V19.1H10H10.525V14.9H10ZM10 19.1H9.475C9.475 20.9018 9.83214 22.2996 10.7663 23.2337C11.7004 24.1679 13.0982 24.525 14.9 24.525V24V23.475C13.2018 23.475 12.1496 23.1321 11.5087 22.4913C10.8679 21.8504 10.525 20.7982 10.525 19.1H10Z" fill="#292D32"/>
</svg>
