<svg width="34" height="34" viewBox="0 0 34 34" fill="none" xmlns="http://www.w3.org/2000/svg">
<rect width="34" height="34" rx="10" fill="#FFEE00"/>
<path d="M17.0003 19.8748C17.2518 19.8748 17.4963 19.8537 17.7338 19.8114C19.1239 19.6068 20.3184 18.8098 21.0729 17.6812C21.5898 16.8983 21.8902 15.9602 21.8902 14.9374C21.8902 12.2077 19.7037 10 17.0003 10C14.2968 10 12.1104 12.2077 12.1104 14.9374C12.1104 15.9602 12.4107 16.8983 12.9277 17.6812C13.6821 18.8098 14.8767 19.6068 16.2668 19.8114C16.5043 19.8537 16.7488 19.8748 17.0003 19.8748ZM17.0003 19.8748L20.3321 23.7401C20.7024 24.1844 21.4149 24.0152 21.5476 23.4509L21.7921 22.414C21.848 22.153 22.0506 21.9555 22.3091 21.8921L23.4617 21.617C23.9926 21.49 24.1812 20.8199 23.797 20.4391L21.0726 17.6882C20.3182 18.8168 19.1236 19.6138 17.7335 19.8184C17.496 19.8607 17.2515 19.8818 17 19.8818C16.7485 19.8818 16.504 19.8607 16.2665 19.8184C14.8764 19.6138 13.6818 18.8168 12.9274 17.6882L10.203 20.4391C9.81878 20.827 10.0074 21.4971 10.5383 21.624L11.6909 21.8991C11.9424 21.9556 12.145 22.1601 12.2079 22.4211L12.4524 23.4579C12.5851 24.0222 13.2976 24.1915 13.6679 23.7471L17.0003 19.8748ZM17.4051 12.8076L17.8172 13.6399C17.8731 13.7528 18.0198 13.8656 18.1525 13.8868L18.9 14.0138C19.375 14.0913 19.4868 14.444 19.1445 14.7896L18.5647 15.3751C18.4669 15.4738 18.411 15.6643 18.4459 15.8053L18.6136 16.5319C18.7463 17.1032 18.4459 17.3289 17.943 17.0256L17.2444 16.6094C17.1187 16.5319 16.9091 16.5319 16.7834 16.6094L16.0848 17.0256C15.5818 17.3218 15.2814 17.1032 15.4142 16.5319L15.5818 15.8053C15.6098 15.6713 15.5609 15.4738 15.4631 15.3751L14.8833 14.7896C14.541 14.444 14.6527 14.0984 15.1278 14.0138L15.8752 13.8868C16.001 13.8656 16.1477 13.7528 16.2036 13.6399L16.6157 12.8076C16.8183 12.3562 17.1815 12.3562 17.4051 12.8076Z" stroke="#292D32" stroke-width="1.04784" stroke-linecap="round" stroke-linejoin="round"/>
</svg>
