<svg width="15" height="15" viewBox="0 0 15 15" fill="none" xmlns="http://www.w3.org/2000/svg">
<rect width="15" height="15" rx="2" fill="#00C742"/>
<path d="M5.62314 10.1061L3.45439 7.9374C3.33753 7.82053 3.17903 7.75488 3.01376 7.75488C2.8485 7.75488 2.69 7.82053 2.57314 7.9374C2.45628 8.05426 2.39063 8.21275 2.39062 8.37802C2.39063 8.45985 2.40674 8.54088 2.43806 8.61649C2.46937 8.69209 2.51527 8.76078 2.57314 8.81865L5.18564 11.4311C5.42939 11.6749 5.82314 11.6749 6.06689 11.4311L12.6794 4.81865C12.7962 4.70178 12.8619 4.54329 12.8619 4.37802C12.8619 4.21275 12.7962 4.05426 12.6794 3.9374C12.5625 3.82053 12.404 3.75488 12.2388 3.75488C12.0735 3.75488 11.915 3.82053 11.7981 3.9374L5.62314 10.1061Z" fill="white"/>
</svg>
