<svg width="34" height="34" viewBox="0 0 34 34" fill="none" xmlns="http://www.w3.org/2000/svg">
<rect width="34" height="34" rx="10" fill="#FFEE00"/>
<path d="M14.9 24H19.1C22.6 24 24 22.6 24 19.1V14.9C24 11.4 22.6 10 19.1 10H14.9C11.4 10 10 11.4 10 14.9V19.1C10 22.6 11.4 24 14.9 24Z" stroke="#292D32" stroke-width="0.875" stroke-miterlimit="10" stroke-linecap="round" stroke-linejoin="round"/>
<path d="M19.45 15.425C20.0299 15.425 20.5 14.9549 20.5 14.375C20.5 13.7951 20.0299 13.325 19.45 13.325C18.8701 13.325 18.4 13.7951 18.4 14.375C18.4 14.9549 18.8701 15.425 19.45 15.425Z" stroke="#292D32" stroke-width="0.875" stroke-miterlimit="10" stroke-linecap="round" stroke-linejoin="round"/>
<path d="M14.55 15.425C15.1299 15.425 15.6 14.9549 15.6 14.375C15.6 13.7951 15.1299 13.325 14.55 13.325C13.9701 13.325 13.5 13.7951 13.5 14.375C13.5 14.9549 13.9701 15.425 14.55 15.425Z" stroke="#292D32" stroke-width="0.875" stroke-miterlimit="10" stroke-linecap="round" stroke-linejoin="round"/>
<path d="M14.48 17.91H19.52C19.87 17.91 20.15 18.19 20.15 18.54C20.15 20.283 18.743 21.69 17 21.69C15.257 21.69 13.85 20.283 13.85 18.54C13.85 18.19 14.13 17.91 14.48 17.91Z" stroke="#292D32" stroke-width="0.875" stroke-miterlimit="10" stroke-linecap="round" stroke-linejoin="round"/>
</svg>
