<svg width="111" height="36" viewBox="0 0 111 36" fill="none" xmlns="http://www.w3.org/2000/svg">
<g clip-path="url(#clip0_281_812)">
<path d="M39.6835 0.611018V20.9716H36.8428C35.256 16.9821 33.6664 12.9846 32.078 8.99057C32.0631 8.99057 32.0585 8.9894 32.0545 8.99057C32.0517 8.99169 32.0477 8.99516 32.0466 8.99797C32.0449 9.00713 32.0437 9.0163 32.0432 9.0254C32.0426 9.04313 32.0432 9.0614 32.0432 9.07972C32.0426 13.02 32.0426 16.9604 32.0426 20.9002C32.0426 20.9047 32.0426 20.9093 32.042 20.9139C32.0414 20.9231 32.0403 20.9322 32.0392 20.9413C32.0386 20.9459 32.038 20.9505 32.0363 20.9545C32.034 20.9585 32.0311 20.9614 32.022 20.9727H28.8514C28.8486 20.9705 28.8451 20.9676 28.8417 20.9642C28.8388 20.9608 28.8348 20.9574 28.8342 20.9533C28.8319 20.9265 28.8279 20.899 28.8279 20.8722C28.8285 14.1331 28.8285 7.39407 28.8296 0.655586C28.8296 0.643014 28.8365 0.630444 28.8434 0.606445H31.7013C33.2824 4.60623 34.8639 8.60714 36.4455 12.6075C36.4546 12.6058 36.4638 12.6041 36.4729 12.6029V0.611018H39.6835Z" fill="black"/>
<path d="M91.3813 20.8181V20.9735H88.3459C88.3426 20.9386 88.336 20.9037 88.3347 20.8695C88.3334 20.8147 88.3341 20.7597 88.3341 20.7049C88.3341 17.1846 88.3341 13.6647 88.3354 10.1443C88.3354 9.87753 88.3079 9.61526 88.2188 9.36326C88.0329 8.83759 87.6721 8.49932 87.1149 8.41875C86.3312 8.30505 85.717 8.66499 85.4774 9.40096C85.4008 9.63692 85.3713 9.88094 85.3713 10.1289V20.9718H82.3319V0.612305H85.349C85.349 0.612305 85.353 0.615733 85.3556 0.618589C85.3595 0.622017 85.3634 0.625446 85.3641 0.629446C85.3667 0.642588 85.37 0.656305 85.37 0.669441C85.3706 2.71505 85.3706 4.76008 85.3706 6.8051C85.3778 6.80857 85.3863 6.81138 85.3942 6.81485C85.4211 6.78513 85.4485 6.75653 85.4741 6.7257C85.9815 6.128 86.6225 5.77659 87.4043 5.69431C88.0971 5.62118 88.7793 5.68003 89.4112 5.98629C90.3913 6.46056 91.0094 7.2371 91.2366 8.30905C91.3479 8.82954 91.3807 9.35756 91.3807 9.88781C91.382 13.531 91.3813 17.1743 91.3813 20.8181Z" fill="black"/>
<path d="M101.937 9.30721C101.845 8.71524 101.666 8.15298 101.357 7.6376C100.913 6.89645 100.321 6.3205 99.5002 6.00623C99.0235 5.82395 98.5285 5.73139 98.0204 5.68854C97.3198 5.62911 96.6356 5.69653 95.9671 5.91595C94.7997 6.29936 93.9413 7.03417 93.4168 8.14899C93.1837 8.64664 93.0659 9.17408 93.0246 9.71977C93.0135 9.86318 93.0226 10.0077 93.0226 10.1586H96.0627C96.0627 10.0872 96.0561 10.0323 96.0633 9.97917C96.0895 9.79 96.0974 9.59403 96.1531 9.41351C96.3194 8.87979 96.6402 8.48497 97.2177 8.36722C97.367 8.33698 97.5267 8.33979 97.6806 8.35066C98.2234 8.38836 98.6025 8.6615 98.8101 9.16661C98.9234 9.44146 98.9626 9.73057 98.9646 10.0237C98.9698 10.6997 98.9666 11.3751 98.9659 12.0511C98.9659 12.0853 98.9594 12.1202 98.9548 12.1608H98.7944C98.3328 12.1608 97.8711 12.1591 97.4089 12.1619C96.8962 12.1653 96.3881 12.2133 95.8872 12.327C94.7296 12.5887 93.8614 13.2378 93.2917 14.2789C92.9211 14.9583 92.762 15.6949 92.7522 16.4622C92.7483 16.8222 92.7725 17.1828 92.8013 17.5422C92.8406 18.021 92.9388 18.4896 93.1045 18.9415C93.4456 19.8735 94.0755 20.5431 94.981 20.9403C95.6109 21.2169 96.2827 21.2511 96.9577 21.1786C97.75 21.0934 98.3734 20.7026 98.8598 20.0809C98.9247 19.998 98.9862 19.9135 99.0504 19.8301C99.0707 19.8027 99.0942 19.7769 99.1381 19.7244V20.9637C99.3241 20.994 101.913 20.986 102.016 20.9551V20.7803C102.016 17.3336 102.015 13.8863 102.016 10.4391C102.016 10.0597 101.995 9.68259 101.937 9.30721ZM98.9653 16.5531C98.9639 16.9171 98.907 17.2719 98.7518 17.6045C98.5377 18.0633 98.2044 18.3913 97.6963 18.4993C97.0324 18.6398 96.3056 18.4182 95.9913 17.629C95.9101 17.4245 95.8617 17.2113 95.8316 16.9942C95.7563 16.4554 95.8021 15.9303 95.9946 15.4183C96.2356 14.7732 96.6972 14.4121 97.3827 14.3492C97.6282 14.3263 97.8757 14.324 98.1219 14.32C98.3956 14.3155 98.6693 14.3189 98.9666 14.3189V14.4715C98.9666 15.1652 98.9692 15.8594 98.9653 16.5531Z" fill="black"/>
<path d="M67.4709 14.3225C67.4709 14.2488 67.4716 14.1996 67.4709 14.1504C67.467 13.6756 67.4624 13.2014 67.4579 12.7266C67.448 11.7083 67.4173 10.6918 67.2621 9.68272C67.175 9.11359 67.046 8.55422 66.8208 8.02161C66.2996 6.79257 65.388 6.03718 64.0728 5.77377C63.6086 5.6812 63.1394 5.6612 62.6684 5.66977C62.21 5.67834 61.7579 5.73263 61.3172 5.86233C60.422 6.12689 59.6973 6.63031 59.1811 7.41367C58.8976 7.84449 58.7233 8.32447 58.593 8.8216C58.3603 9.70897 58.2757 10.6175 58.2443 11.53C58.2175 12.3008 58.2129 13.0728 58.2118 13.8436C58.2106 14.8664 58.2403 15.8881 58.3758 16.9035C58.4512 17.4697 58.5696 18.0257 58.7593 18.5662C59.1263 19.6124 59.8225 20.361 60.8182 20.8341C61.2594 21.0438 61.7322 21.1415 62.2186 21.1792C62.9096 21.2335 63.5967 21.2198 64.2745 21.0604C64.8787 20.9181 65.4343 20.6729 65.9013 20.2547C66.4155 19.7947 66.7677 19.2239 67.0152 18.5851C67.2313 18.028 67.342 17.4469 67.3956 16.8543C67.4048 16.7526 67.3963 16.6492 67.3963 16.5509H64.3992C64.394 16.628 64.39 16.6955 64.3837 16.7635C64.354 17.088 64.2946 17.4086 64.1362 17.696C63.899 18.1245 63.5549 18.4148 63.0451 18.4714C62.3803 18.5451 61.7665 18.1891 61.5521 17.5503C61.4349 17.2017 61.3697 16.8429 61.3423 16.4789C61.3035 15.9607 61.2829 15.4407 61.26 14.9212C61.2514 14.7264 61.2589 14.531 61.2589 14.3225H67.4709ZM61.3669 10.0341C61.4041 9.76781 61.4486 9.50043 61.5578 9.25242C61.7544 8.80445 62.0779 8.4902 62.5701 8.39706C63.0245 8.31079 63.4389 8.40505 63.7887 8.73016C64.0705 8.99132 64.2031 9.32213 64.2734 9.689C64.354 10.1067 64.3855 10.5295 64.4037 10.9535C64.4175 11.2723 64.4163 11.5923 64.4215 11.9117C64.4215 11.9609 64.4215 12.01 64.4215 12.0695H61.2652C61.2617 12.0249 61.256 11.9849 61.2566 11.9454C61.2606 11.3066 61.2789 10.6683 61.3669 10.0341Z" fill="black"/>
<path d="M23.3671 17.9966C22.9886 19.2908 22.201 20.2537 20.9664 20.8273C20.524 21.0324 20.0518 21.1427 19.566 21.173C19.2288 21.1942 18.8892 21.2147 18.5531 21.1953C17.634 21.1427 16.7629 20.9108 16.0176 20.3519C15.1734 19.72 14.6298 18.8755 14.3742 17.8509C14.2862 17.495 14.2422 17.1333 14.2348 16.767C14.2337 16.7081 14.2348 16.6493 14.2348 16.5927C14.3382 16.5641 17.0578 16.5556 17.2419 16.5825C17.2545 16.7156 17.2631 16.8515 17.2819 16.9853C17.3237 17.2784 17.4208 17.5521 17.5934 17.7949C17.9352 18.2777 18.4188 18.4669 18.9927 18.448C19.1642 18.4423 19.3425 18.42 19.5037 18.3652C19.9907 18.2 20.3176 17.8743 20.4388 17.3624C20.52 17.019 20.5263 16.6738 20.4525 16.331C20.3514 15.863 20.0907 15.4957 19.6952 15.2311C19.506 15.1053 19.3048 14.9934 19.0979 14.8991C18.3839 14.5751 17.6638 14.2637 16.9481 13.9425C16.344 13.6712 15.7884 13.3249 15.3128 12.858C14.7784 12.3341 14.4634 11.7027 14.3685 10.9598C14.2902 10.3485 14.2937 9.73997 14.4143 9.13425C14.5635 8.38113 14.9196 7.7332 15.422 7.15779C16.1045 6.37612 16.9698 5.92758 17.9838 5.7493C18.8927 5.59045 19.7889 5.64645 20.6577 5.95615C22.0352 6.44698 22.8778 7.42864 23.2327 8.83598C23.3345 9.24055 23.3751 9.65364 23.3768 10.0702C23.3768 10.0971 23.3734 10.1233 23.3705 10.1616H20.3902C20.3879 10.1057 20.3851 10.053 20.3839 9.99996C20.3782 9.7708 20.3497 9.54393 20.2714 9.32793C20.0838 8.80796 19.7295 8.45431 19.1762 8.36516C18.3291 8.22804 17.5128 8.67371 17.3848 9.62621C17.3528 9.86453 17.3545 10.1005 17.402 10.3348C17.47 10.6707 17.6621 10.9336 17.9164 11.1547C18.1702 11.3753 18.4588 11.5393 18.7669 11.6713C19.4048 11.9432 20.0421 12.2158 20.6783 12.4906C21.1693 12.7032 21.6426 12.9501 22.0701 13.2758C22.7886 13.8237 23.2567 14.5288 23.431 15.4214C23.5997 16.2853 23.6151 17.1481 23.3671 17.9966Z" fill="black"/>
<path d="M80.9407 0.613281V3.49884H77.5163C77.5157 3.99538 77.515 4.4765 77.515 4.95819V20.9762H74.291C74.291 20.5579 74.291 20.1442 74.291 19.7305C74.291 19.3151 74.291 18.8997 74.291 18.4843V3.50455H70.8928V0.613281H80.9407Z" fill="black"/>
<path d="M56.7764 16.5459C56.7804 16.5687 56.7896 16.5944 56.7879 16.6196C56.7318 17.4824 56.566 18.3189 56.1797 19.1006C55.6778 20.116 54.8667 20.7508 53.775 21.0347C53.2091 21.1822 52.6324 21.2165 52.0499 21.2045C51.5075 21.193 50.9753 21.1239 50.4638 20.9416C49.3566 20.5485 48.6181 19.7788 48.1992 18.6932C48.0048 18.1887 47.8934 17.6624 47.8151 17.1293C47.659 16.0699 47.627 15.0025 47.6224 13.9346C47.6201 13.3272 47.6213 12.7198 47.6356 12.113C47.647 11.6387 47.671 11.1645 47.7081 10.6913C47.7757 9.83482 47.8968 8.98745 48.1969 8.1749C48.4941 7.3698 48.9879 6.72069 49.7236 6.26528C50.1643 5.99273 50.6478 5.83673 51.1566 5.75217C51.7871 5.64703 52.4215 5.6436 53.0554 5.70188C53.7853 5.76873 54.4672 5.97673 55.0696 6.41213C55.6864 6.85782 56.0956 7.45607 56.366 8.15604C56.5523 8.63943 56.665 9.14172 56.7301 9.65423C56.7513 9.81708 56.7684 9.97994 56.789 10.1593H53.7796C53.7481 9.96796 53.7224 9.77879 53.6841 9.5931C53.6378 9.368 53.5515 9.15769 53.4194 8.96683C53.1514 8.57888 52.7856 8.37604 52.31 8.37028C51.9059 8.36517 51.5595 8.49889 51.2691 8.77943C51.1034 8.93999 51.0085 9.13996 50.9411 9.35596C50.8302 9.71079 50.781 10.0765 50.7485 10.4451C50.6804 11.205 50.6696 11.9673 50.6685 12.7295C50.6667 13.5375 50.6662 14.3454 50.6776 15.1534C50.6855 15.7008 50.7033 16.2487 50.7782 16.7921C50.8193 17.091 50.8771 17.3853 50.9897 17.6675C51.184 18.1538 51.5584 18.3938 52.0619 18.4663C52.2832 18.4983 52.4998 18.4812 52.713 18.4223C53.1651 18.2972 53.4366 17.9812 53.603 17.5618C53.7104 17.2915 53.7447 17.0064 53.7664 16.719C53.7704 16.6653 53.7739 16.611 53.7773 16.5601C53.887 16.531 56.4975 16.5196 56.7764 16.5459Z" fill="black"/>
<path d="M110.188 18.2549V20.9742C110.144 20.9765 110.1 20.9827 110.057 20.9805C109.683 20.9639 109.308 20.9518 108.934 20.9273C108.492 20.8988 108.056 20.8164 107.637 20.6662C106.376 20.2142 105.569 19.336 105.203 18.0515C105.052 17.5212 105 16.9772 105.001 16.427C105.001 13.8883 105.001 11.3501 105.001 8.8114V8.62741H103.413C103.383 8.52052 103.376 6.48352 103.404 6.29839H105.412C105.291 6.17553 105.194 6.07325 105.093 5.97783C105.029 5.91841 104.999 5.85555 104.999 5.7647C105.003 5.09331 105.002 4.42191 105 3.7511C104.999 3.67224 105.02 3.61453 105.077 3.55854C106.032 2.60773 106.985 1.65464 107.938 0.702688C107.965 0.677547 107.992 0.654121 108.016 0.631836C108.027 0.637549 108.031 0.639263 108.034 0.641549C108.037 0.644406 108.043 0.647836 108.043 0.650693V6.29324H110.183V8.62283C109.832 8.6297 109.477 8.62453 109.123 8.62571C108.772 8.62623 108.42 8.62571 108.054 8.62571C108.051 8.68625 108.048 8.73881 108.048 8.79196V12.4077C108.048 13.6591 108.048 14.9099 108.047 16.1607C108.047 16.4173 108.06 16.6721 108.119 16.9224C108.275 17.5869 108.689 18 109.35 18.1571C109.566 18.208 109.792 18.2189 110.013 18.2458C110.066 18.2526 110.121 18.2515 110.188 18.2549Z" fill="black"/>
<path d="M9.73761 16.201C9.73761 16.4432 9.75876 16.6832 9.81304 16.9203C9.96626 17.5883 10.3835 17.9974 11.0426 18.1557C11.258 18.2077 11.4838 18.2179 11.7056 18.2443C11.7587 18.2511 11.8125 18.2454 11.8759 18.2454V20.9721C11.6639 20.9721 11.4587 20.9835 11.2552 20.9698C10.8911 20.9452 10.5253 20.9224 10.1652 20.8681C9.09287 20.707 8.18805 20.2424 7.52616 19.3614C7.1426 18.8517 6.92142 18.2717 6.80253 17.65C6.72251 17.2317 6.69107 16.8095 6.69164 16.3838C6.69221 13.8634 6.69164 11.3435 6.69164 8.82305V8.62878C6.50873 8.62132 6.33211 8.6259 6.15607 8.62531C5.9823 8.6242 5.80854 8.62479 5.63478 8.62479H5.1032C5.07177 8.52307 5.06319 6.49974 5.09291 6.30147H7.07234C7.07745 6.2929 7.08203 6.28433 7.0872 6.27576C7.01516 6.20319 6.95 6.12205 6.8694 6.06091C6.72022 5.9472 6.68421 5.80549 6.68764 5.62208C6.6985 5.00154 6.69278 4.38043 6.6905 3.75989C6.68993 3.67704 6.70936 3.6159 6.77109 3.55476C7.72337 2.60795 8.6733 1.65829 9.62388 0.709202C9.65191 0.681201 9.68216 0.656066 9.73362 0.610352V6.29975H11.8759V8.6225C11.7005 8.6276 11.5244 8.6242 11.3478 8.62479C11.1694 8.62531 10.9911 8.62479 10.8133 8.62479H9.7422C9.7405 8.68534 9.73761 8.7379 9.73761 8.79104V16.201Z" fill="black"/>
<path d="M3.69403 20.9736H0.5V0.623298C0.59717 0.596442 3.43796 0.585588 3.6866 0.6113C3.7146 0.706721 3.72318 20.7919 3.69403 20.9736Z" fill="black"/>
<path d="M45.4064 20.8823C45.4064 20.9092 45.4019 20.9361 45.3984 20.9721H42.3822C42.3822 20.9721 42.3782 20.9675 42.3753 20.9646C42.3725 20.9612 42.3673 20.9578 42.3668 20.9537C42.3639 20.9361 42.3605 20.9177 42.3605 20.8995C42.3605 16.0523 42.3605 11.2046 42.3616 6.35685C42.3616 6.34371 42.3673 6.33114 42.3742 6.30371H45.3779C45.3853 6.31 45.3893 6.31228 45.3927 6.31571C45.3956 6.31857 45.3996 6.32257 45.3996 6.32657C45.4019 11.1783 45.4041 16.0301 45.4064 20.8823Z" fill="black"/>
<path d="M15.5923 5.17491C15.5923 5.25148 15.5689 5.29833 15.5043 5.34233C14.4869 6.03429 13.7747 6.96509 13.3397 8.11192C13.3288 8.14163 13.3163 8.17135 13.3026 8.19989C13.3003 8.20506 13.2871 8.20506 13.2791 8.20787C13.2522 8.11362 13.2437 0.798583 13.2717 0.612305H15.5798C15.5832 0.647731 15.59 0.686584 15.5906 0.724868C15.5912 2.20822 15.5906 3.69156 15.5923 5.17491Z" fill="black"/>
<path d="M45.7188 2.08937C45.7142 3.15045 44.8466 3.92069 43.8891 3.91613C42.8768 3.91098 42.056 3.09789 42.0618 2.08765C42.0675 0.995714 42.9786 0.269467 43.884 0.26661C44.8043 0.263753 45.7119 1.002 45.7188 2.08937Z" fill="black"/>
<path d="M5.82132 34.2509V29.2109H6.52715V34.2509H5.82132Z" fill="black"/>
<path d="M7.43787 34.2499V30.6571H8.12209L8.10049 31.5355C8.25174 30.9235 8.66227 30.5635 9.29608 30.5635C10.0883 30.5635 10.5925 31.1323 10.5925 32.0395V34.2499H9.90828V32.1403C9.90828 31.4851 9.60578 31.1179 9.0656 31.1179C8.4534 31.1179 8.12209 31.5715 8.12209 32.3923V34.2499H7.43787Z" fill="black"/>
<path d="M12.7796 34.3731C11.8937 34.3731 11.2599 33.8619 11.2238 33.1059L11.8505 33.0915C11.8937 33.5739 12.261 33.8907 12.7796 33.8907C13.1901 33.8907 13.5286 33.6963 13.5286 33.3363C13.5286 33.0771 13.3558 32.9115 12.9524 32.8107L12.4771 32.6955C11.8072 32.5443 11.4615 32.1915 11.4615 31.6515C11.4615 30.9747 12.0161 30.5283 12.8084 30.5283C13.6583 30.5283 14.2705 31.0395 14.3137 31.7955L13.6943 31.8171C13.651 31.3491 13.2981 31.0179 12.8156 31.0179C12.4122 31.0179 12.1097 31.2411 12.1097 31.5867C12.1097 31.8459 12.2826 32.0043 12.6139 32.0907L13.0893 32.2131C13.8239 32.3715 14.1984 32.7171 14.1984 33.2571C14.1984 33.9483 13.5862 34.3731 12.7796 34.3731Z" fill="black"/>
<path d="M14.9838 35.6189V30.6581H15.668V31.2629C15.9345 30.8165 16.3811 30.5645 16.9356 30.5645C17.9008 30.5645 18.5994 31.3493 18.5994 32.4581C18.5994 33.5597 17.9008 34.3445 16.9356 34.3445C16.3811 34.3445 15.9345 34.0925 15.668 33.6461V35.6189H14.9838ZM15.6248 32.4581C15.6248 33.2429 16.093 33.7829 16.7628 33.7829C17.4254 33.7829 17.908 33.2285 17.908 32.4581C17.908 31.6877 17.4254 31.1261 16.7628 31.1261C16.093 31.1261 15.6248 31.6661 15.6248 32.4581Z" fill="black"/>
<path d="M19.3171 34.2504V30.6576H20.0013V34.2504H19.3171ZM19.1731 29.556C19.1731 29.2824 19.3819 29.0664 19.6628 29.0664C19.9365 29.0664 20.1454 29.2824 20.1454 29.556C20.1454 29.8368 19.9365 30.0456 19.6628 30.0456C19.3819 30.0456 19.1731 29.8368 19.1731 29.556Z" fill="black"/>
<path d="M20.8499 34.251V30.6582H21.5341L21.5125 31.731C21.6638 30.8454 22.2832 30.5286 22.9026 30.6438V31.3134C22.1463 31.2126 21.5341 31.659 21.5341 32.703V34.251H20.8499Z" fill="black"/>
<path d="M23.4882 34.2504V30.6576H24.1725V34.2504H23.4882ZM23.3442 29.556C23.3442 29.2824 23.553 29.0664 23.8339 29.0664C24.1076 29.0664 24.3165 29.2824 24.3165 29.556C24.3165 29.8368 24.1076 30.0456 23.8339 30.0456C23.553 30.0456 23.3442 29.8368 23.3442 29.556Z" fill="black"/>
<path d="M25.0207 34.2509V30.6581H25.7049L25.6833 31.5365C25.8346 30.9245 26.2451 30.5645 26.8789 30.5645C27.6712 30.5645 28.1753 31.1333 28.1753 32.0405V34.2509H27.4911V32.1413C27.4911 31.4861 27.1886 31.1189 26.6484 31.1189C26.0362 31.1189 25.7049 31.5725 25.7049 32.3933V34.2509H25.0207Z" fill="black"/>
<path d="M30.8525 35.7338C30.0098 35.7338 29.2536 35.2802 29.1167 34.5962L29.7865 34.5458C29.909 34.9418 30.3843 35.1938 30.8741 35.1938C31.4575 35.1938 31.9905 34.8338 31.9905 34.0778V33.4658C31.796 33.9194 31.299 34.2794 30.6652 34.2794C29.6641 34.2794 28.8646 33.4874 28.8646 32.4146C28.8646 31.3634 29.6353 30.5498 30.6652 30.5498C31.2846 30.5498 31.8104 30.8882 32.0193 31.3922V30.6578H32.6675V33.9698C32.6675 35.2154 31.76 35.7338 30.8525 35.7338ZM29.5561 32.4146C29.5561 33.1346 30.0818 33.7034 30.7949 33.7034C31.4935 33.7034 32.0265 33.1418 32.0265 32.4146C32.0265 31.709 31.5079 31.1258 30.7949 31.1258C30.0962 31.1258 29.5561 31.6658 29.5561 32.4146Z" fill="black"/>
<path d="M37.4875 34.3944C36.011 34.3944 34.9379 33.2712 34.9379 31.7304C34.9379 30.1896 36.011 29.0664 37.4875 29.0664C38.7407 29.0664 39.7347 29.8872 39.8355 31.0104L39.1297 31.068C39.036 30.276 38.3446 29.6928 37.4875 29.6928C36.4288 29.6928 35.6581 30.5568 35.6581 31.7304C35.6581 32.904 36.4288 33.7608 37.4875 33.7608C38.3518 33.7608 39.0576 33.1488 39.1513 32.3208L39.8499 32.3784C39.7491 33.5448 38.7479 34.3944 37.4875 34.3944Z" fill="black"/>
<path d="M40.5919 34.251V30.6582H41.2762L41.2546 31.731C41.4058 30.8454 42.0252 30.5286 42.6446 30.6438V31.3134C41.8884 31.2126 41.2762 31.659 41.2762 32.703V34.251H40.5919Z" fill="black"/>
<path d="M44.7971 34.3731C43.7455 34.3731 42.9893 33.5667 42.9893 32.4507C42.9893 31.3419 43.7455 30.5283 44.7899 30.5283C46.0287 30.5283 46.6337 31.6443 46.504 32.6451H43.6807C43.7023 33.3435 44.1633 33.8403 44.8043 33.8403C45.3012 33.8403 45.719 33.5523 45.8558 33.1203L46.4392 33.2139C46.2808 33.8763 45.6326 34.3731 44.7971 34.3731ZM43.6879 32.1339H45.8414C45.8414 31.5219 45.4165 31.0467 44.7899 31.0467C44.1921 31.0467 43.7455 31.4931 43.6879 32.1339Z" fill="black"/>
<path d="M48.2767 34.3291C47.6501 34.3291 47.1388 33.9619 47.1388 33.3355C47.1388 32.6803 47.6861 32.2699 48.8385 32.1547L49.4939 32.0899V31.9603C49.4939 31.3699 49.0762 31.0891 48.6441 31.0891C48.2335 31.0891 47.8158 31.3483 47.7582 31.8811L47.1028 31.8739C47.1676 30.9883 47.9166 30.5563 48.6585 30.5491C49.4147 30.5347 50.171 31.0171 50.171 31.9963V33.2203C50.171 33.6091 50.2142 33.9979 50.2646 34.2499H49.5948C49.5588 34.0915 49.53 33.8827 49.53 33.5083C49.3715 34.0411 48.8097 34.3291 48.2767 34.3291ZM47.8158 33.2923C47.8158 33.6739 48.1327 33.8611 48.4856 33.8611C48.961 33.8611 49.5011 33.5155 49.5011 32.7955V32.5147L48.9105 32.5795C48.1687 32.6659 47.8158 32.9035 47.8158 33.2923Z" fill="black"/>
<path d="M52.3461 34.2938C51.8275 34.2938 51.3377 33.9842 51.3377 33.149V31.2266H50.6607V30.6578H51.3377V29.7578H52.0148V30.6578H52.9799V31.2266H52.0148V33.1058C52.0148 33.545 52.2308 33.7034 52.4901 33.7034C52.5837 33.7034 52.6846 33.6818 52.7782 33.6458L52.7926 34.2146C52.6486 34.265 52.4973 34.2938 52.3461 34.2938Z" fill="black"/>
<path d="M53.6109 34.2504V30.6576H54.2951V34.2504H53.6109ZM53.4669 29.556C53.4669 29.2824 53.6757 29.0664 53.9566 29.0664C54.2303 29.0664 54.4392 29.2824 54.4392 29.556C54.4392 29.8368 54.2303 30.0456 53.9566 30.0456C53.6757 30.0456 53.4669 29.8368 53.4669 29.556Z" fill="black"/>
<path d="M56.3182 34.25L54.8922 30.6572H55.598L56.6783 33.5228L57.7659 30.6572H58.4501L57.0241 34.25H56.3182Z" fill="black"/>
<path d="M59.0501 34.2504V30.6576H59.7343V34.2504H59.0501ZM58.9061 29.556C58.9061 29.2824 59.1149 29.0664 59.3958 29.0664C59.6695 29.0664 59.8784 29.2824 59.8784 29.556C59.8784 29.8368 59.6695 30.0456 59.3958 30.0456C59.1149 30.0456 58.9061 29.8368 58.9061 29.556Z" fill="black"/>
<path d="M62.0377 34.2938C61.5191 34.2938 61.0294 33.9842 61.0294 33.149V31.2266H60.3523V30.6578H61.0294V29.7578H61.7064V30.6578H62.6715V31.2266H61.7064V33.1058C61.7064 33.545 61.9224 33.7034 62.1817 33.7034C62.2754 33.7034 62.3762 33.6818 62.4698 33.6458L62.4842 34.2146C62.3402 34.265 62.1889 34.2938 62.0377 34.2938Z" fill="black"/>
<path d="M63.2972 35.0996C63.7293 35.2148 64.1975 35.1284 64.4856 34.5092L64.6368 34.1492L63.0955 30.6572H63.8158L65.0114 33.3932L66.1133 30.6572H66.8047L65.1913 34.5092C64.7881 35.4884 64.1327 35.8844 63.2972 35.6756V35.0996Z" fill="black"/>
<path d="M70.7905 34.3803C69.8037 34.3803 68.7954 33.8115 68.781 32.6523L69.4652 32.6091C69.4868 33.4011 70.1206 33.8187 70.7977 33.8187C71.3955 33.8187 71.914 33.4947 71.914 32.9403C71.914 32.5371 71.6259 32.2779 71.0498 32.1267L70.4231 31.9827C69.4652 31.7667 69.0403 31.2555 69.0403 30.5715C69.0403 29.5995 69.8974 29.0811 70.7689 29.0811C71.698 29.0811 72.6199 29.6355 72.6847 30.7731L71.9789 30.8091C71.9284 30.0387 71.3667 29.6427 70.7617 29.6427C70.2143 29.6427 69.7389 29.9667 69.7389 30.5139C69.7389 30.9171 69.9982 31.1763 70.488 31.3059L71.1146 31.4499C72.1301 31.6875 72.6127 32.1843 72.6127 32.8899C72.6127 33.8763 71.7124 34.3803 70.7905 34.3803Z" fill="black"/>
<path d="M73.447 34.2504V30.6576H74.1313V34.2504H73.447ZM73.303 29.556C73.303 29.2824 73.5118 29.0664 73.7927 29.0664C74.0664 29.0664 74.2753 29.2824 74.2753 29.556C74.2753 29.8368 74.0664 30.0456 73.7927 30.0456C73.5118 30.0456 73.303 29.8368 73.303 29.556Z" fill="black"/>
<path d="M74.98 34.2499V30.6571H75.6643L75.6427 31.5355C75.7939 30.9235 76.2044 30.5635 76.8383 30.5635C77.6305 30.5635 78.1347 31.1323 78.1347 32.0395V34.2499H77.4505V32.1403C77.4505 31.4851 77.148 31.1179 76.6078 31.1179C75.9956 31.1179 75.6643 31.5715 75.6643 32.3923V34.2499H74.98Z" fill="black"/>
<path d="M80.6684 34.3586C79.6024 34.3586 78.8318 33.5594 78.8318 32.4506C78.8318 31.3562 79.6096 30.5498 80.6684 30.5498C81.5831 30.5498 82.3177 31.1402 82.3754 31.9898L81.7055 32.0474C81.6479 31.5218 81.2086 31.1402 80.6612 31.1402C79.9986 31.1402 79.516 31.6946 79.516 32.4506C79.516 33.3002 80.0634 33.7538 80.6612 33.7538C81.1798 33.7538 81.6479 33.4082 81.7127 32.825L82.3826 32.8754C82.3321 33.7538 81.5975 34.3586 80.6684 34.3586Z" fill="black"/>
<path d="M84.7685 34.3731C83.7169 34.3731 82.9607 33.5667 82.9607 32.4507C82.9607 31.3419 83.7169 30.5283 84.7613 30.5283C86.0001 30.5283 86.6051 31.6443 86.4755 32.6451H83.6521C83.6737 33.3435 84.1347 33.8403 84.7757 33.8403C85.2727 33.8403 85.6904 33.5523 85.8272 33.1203L86.4106 33.2139C86.2522 33.8763 85.604 34.3731 84.7685 34.3731ZM83.6593 32.1339H85.8128C85.8128 31.5219 85.3879 31.0467 84.7613 31.0467C84.1635 31.0467 83.7169 31.4931 83.6593 32.1339Z" fill="black"/>
<path d="M88.6881 33.7536C90.5607 32.1696 91.2953 31.5216 91.2953 30.7008C91.2953 30.096 90.8776 29.6712 90.2942 29.6712C89.6748 29.6712 89.2571 30.1752 89.2571 30.8952H88.5728C88.5728 29.8224 89.2499 29.0664 90.3086 29.0664C91.3098 29.0664 91.9868 29.7216 91.9868 30.6648C91.9868 31.6512 91.2449 32.4576 89.5668 33.696H91.8715V34.2504H88.6881V33.7536Z" fill="black"/>
<path d="M94.5904 34.351C93.474 34.351 92.7177 33.2854 92.7177 31.7302C92.7177 30.175 93.474 29.1094 94.5904 29.1094C95.7067 29.1094 96.4702 30.175 96.4702 31.7302C96.4702 33.2854 95.7067 34.351 94.5904 34.351ZM93.402 31.7302C93.402 32.9254 93.8845 33.7462 94.5904 33.7462C95.3034 33.7462 95.7788 32.9254 95.7788 31.7302C95.7788 30.535 95.3034 29.7142 94.5904 29.7142C93.8845 29.7142 93.402 30.535 93.402 31.7302Z" fill="black"/>
<path d="M99.1624 34.351C98.046 34.351 97.2897 33.2854 97.2897 31.7302C97.2897 30.175 98.046 29.1094 99.1624 29.1094C100.279 29.1094 101.042 30.175 101.042 31.7302C101.042 33.2854 100.279 34.351 99.1624 34.351ZM97.974 31.7302C97.974 32.9254 98.4565 33.7462 99.1624 33.7462C99.8754 33.7462 100.351 32.9254 100.351 31.7302C100.351 30.535 99.8754 29.7142 99.1624 29.7142C98.4565 29.7142 97.974 30.535 97.974 31.7302Z" fill="black"/>
<path d="M102.444 34.2509C102.444 32.5301 103.136 30.7805 104.281 29.7941H101.422V29.2109H104.864V29.7581C103.798 30.7589 103.157 32.5445 103.157 34.2509H102.444Z" fill="black"/>
</g>
<defs>
<clipPath id="clip0_281_812">
<rect width="110" height="36" fill="white" transform="translate(0.5)"/>
</clipPath>
</defs>
</svg>
