<svg width="109" height="18" viewBox="0 0 109 18" fill="none" xmlns="http://www.w3.org/2000/svg">
<path d="M62.3692 7.02258L62.3901 7.09668L64.713 15.3004L67.0227 7.09678L67.0436 7.02258H68.1339V17.203H67.0745V10.7351L65.3265 17.1281L65.3059 17.203H64.135L64.1143 17.1283L62.3523 10.7297V17.203H61.293V7.02258H62.3692ZM78.1091 7.02258V8.08188H72.3275V11.5867H78.1091V12.646H72.3275V16.1437H78.1091V17.203H71.2682V7.02258H78.1091ZM88.0844 7.02258V11.7902H87.0251V8.08188H85.1901V17.203H84.1307V8.08188H82.3027V11.7902H81.2434V7.02258H88.0844ZM98.0595 7.02258V8.08188H92.2781V11.5867H98.0595V12.646H92.2781V16.1437H98.0595V17.203H91.2188V7.02258H98.0595ZM105.595 7.02258C106.269 7.02258 106.845 7.26278 107.316 7.7336L107.36 7.77818C107.809 8.24106 108.035 8.80165 108.035 9.44813V10.2204C108.035 10.8876 107.794 11.463 107.316 11.9342C106.845 12.4055 106.27 12.646 105.595 12.646H103.535L108.004 17.0286L108.182 17.203H106.75L106.721 17.1738L102.254 12.7734V17.203H101.194V7.02258H105.595ZM102.254 11.5867H105.595C105.979 11.5867 106.3 11.4513 106.567 11.1851C106.841 10.9113 106.975 10.5891 106.975 10.2204V9.44813C106.975 9.06545 106.841 8.75066 106.568 8.48431L106.567 8.48349C106.3 8.21724 105.979 8.08188 105.595 8.08188H102.254V11.5867Z" fill="black" stroke="black" stroke-width="0.203554"/>
<path d="M47.8593 0.816956H47.5132C46.0311 0.816956 45.2902 0.816956 44.7241 1.10538C44.2262 1.35908 43.8214 1.76386 43.5677 2.26185C43.2793 2.82784 43.2793 3.56888 43.2793 5.05085V6.92355" stroke="black" stroke-width="1.22132"/>
<path d="M47.8593 16.5924H47.5132C46.0311 16.5924 45.2902 16.5924 44.7241 16.304C44.2262 16.0503 43.8214 15.6454 43.5677 15.1475C43.2793 14.5815 43.2793 13.8405 43.2793 12.3584V10.4857" stroke="black" stroke-width="1.22132"/>
<path d="M50.9141 0.816956H51.2601C52.7421 0.816956 53.4831 0.816956 54.0491 1.10538C54.5471 1.35908 54.9519 1.76386 55.2056 2.26185C55.494 2.82784 55.494 3.56888 55.494 5.05085V6.92355" stroke="black" stroke-width="1.22132"/>
<path d="M50.9141 16.5923H51.2601C52.7421 16.5923 53.4831 16.5923 54.0491 16.304C54.5471 16.0503 54.9519 15.6454 55.2056 15.1475C55.494 14.5814 55.494 13.8405 55.494 12.3584V10.4857" stroke="black" stroke-width="1.22132"/>
<path d="M4.70614 0.203552C5.38051 0.203552 5.94904 0.444143 6.42006 0.915198C6.89119 1.38636 7.13169 1.96185 7.13169 2.6291V3.40139C7.13169 4.06864 6.89119 4.64408 6.42006 5.11531C5.94904 5.58634 5.38051 5.82694 4.70614 5.82694H1.364V10.384H0.304688V0.203552H4.70614ZM17.1209 0.203552V1.26287H14.2266V9.32471H17.1209V10.384H10.28V9.32471H13.1673V1.26287H10.28V0.203552H17.1209ZM21.3145 0.203552V9.32471H27.0961V10.384H20.2551V0.203552H21.3145ZM37.0714 0.203552V1.26287H31.2898V4.76764H37.0714V5.82694H31.2898V9.32471H37.0714V10.384H30.2305V0.203552H37.0714ZM1.364 4.76764H4.70614C5.08953 4.76764 5.41156 4.63228 5.6778 4.36603C5.95158 4.09225 6.08634 3.77002 6.08634 3.40139V2.6291C6.08634 2.24642 5.95148 1.93162 5.67872 1.66527L5.6778 1.66446C5.41156 1.39817 5.08953 1.26287 4.70614 1.26287H1.364V4.76764Z" fill="black" stroke="black" stroke-width="0.203554"/>
</svg>
