<svg width="87" height="19" viewBox="0 0 87 19" fill="none" xmlns="http://www.w3.org/2000/svg">
<mask id="mask0_181_330" style="mask-type:luminance" maskUnits="userSpaceOnUse" x="0" y="0" width="87" height="19">
<path d="M87 0.867188H0.5V18.4321H87V0.867188Z" fill="white"/>
</mask>
<g mask="url(#mask0_181_330)">
<path d="M50.1339 7.99707L50.1506 8.07229L51.9991 16.4006L53.8372 8.07239L53.8538 7.99707H54.7214V18.3322H53.8784V11.766L52.4873 18.2561L52.471 18.3322H51.5392L51.5227 18.2563L50.1205 11.7605V18.3322H49.2775V7.99707H50.1339ZM62.6595 7.99707V9.07246H58.0587V12.6305H62.6595V13.7059H58.0587V17.2568H62.6595V18.3322H57.2157V7.99707H62.6595ZM70.5977 7.99707V12.8371H69.7547V9.07246H68.2945V18.3322H67.4514V9.07246H65.9967V12.8371H65.1538V7.99707H70.5977ZM78.5357 7.99707V9.07246H73.935V12.6305H78.5357V13.7059H73.935V17.2568H78.5357V18.3322H73.092V7.99707H78.5357ZM84.5324 7.99707C85.0686 7.99707 85.527 8.24091 85.902 8.71888L85.9368 8.76414C86.294 9.23405 86.4738 9.80316 86.4738 10.4595V11.2435C86.4738 11.9208 86.2827 12.5049 85.902 12.9833C85.527 13.4617 85.0694 13.7059 84.5324 13.7059H82.8932L86.4495 18.1551L86.5913 18.3322H85.4517L85.4282 18.3025L81.8734 13.8352V18.3322H81.0303V7.99707H84.5324ZM81.8734 12.6305H84.5324C84.8378 12.6305 85.0937 12.4931 85.3059 12.2228C85.5238 11.9448 85.6307 11.6177 85.6307 11.2435V10.4595C85.6307 10.071 85.5238 9.75139 85.3067 9.48099L85.3059 9.48017C85.0937 9.20988 84.8378 9.07246 84.5324 9.07246H81.8734V12.6305Z" fill="black" stroke="black" stroke-width="0.124964"/>
<path d="M38.5873 1.69629H38.312C37.1326 1.69629 36.5429 1.69629 36.0925 1.9891C35.6962 2.24665 35.3741 2.65757 35.1722 3.16313C34.9427 3.73771 34.9427 4.49001 34.9427 5.99449V7.89563" stroke="black" stroke-width="0.749784"/>
<path d="M38.5873 17.7121H38.312C37.1326 17.7121 36.5429 17.7121 36.0925 17.4194C35.6962 17.1618 35.3741 16.7508 35.1722 16.2453C34.9427 15.6706 34.9427 14.9184 34.9427 13.4138V11.5127" stroke="black" stroke-width="0.749784"/>
<path d="M41.0188 1.69629H41.2942C42.4735 1.69629 43.0632 1.69629 43.5136 1.9891C43.9099 2.24665 44.232 2.65757 44.4339 3.16313C44.6635 3.73771 44.6635 4.49001 44.6635 5.99449V7.89563" stroke="black" stroke-width="0.749784"/>
<path d="M41.0188 17.7121H41.2942C42.4735 17.7121 43.0632 17.7121 43.5136 17.4194C43.9099 17.1618 44.232 16.7508 44.4339 16.2453C44.6635 15.6706 44.6635 14.9184 44.6635 13.4138V11.5127" stroke="black" stroke-width="0.749784"/>
<path d="M4.24369 1.07324C4.78035 1.07324 5.23277 1.31749 5.6076 1.7957C5.98252 2.27402 6.1739 2.85825 6.1739 3.53563V4.31965C6.1739 4.99703 5.98252 5.58122 5.6076 6.05961C5.23277 6.53779 4.78035 6.78204 4.24369 6.78204H1.58408V11.4083H0.741089V1.07324H4.24369ZM14.1232 1.07324V2.14865H11.8199V10.3329H14.1232V11.4083H8.67925V10.3329H10.9769V2.14865H8.67925V1.07324H14.1232ZM17.4604 1.07324V10.3329H22.0612V11.4083H16.6173V1.07324H17.4604ZM29.9995 1.07324V2.14865H25.3985V5.70666H29.9995V6.78204H25.3985V10.3329H29.9995V11.4083H24.5556V1.07324H29.9995ZM1.58408 5.70666H4.24369C4.54879 5.70666 4.80505 5.56924 5.01693 5.29894C5.2348 5.02101 5.34203 4.69388 5.34203 4.31965V3.53563C5.34203 3.14714 5.23471 2.82756 5.01766 2.55717L5.01693 2.55634C4.80505 2.28601 4.54879 2.14865 4.24369 2.14865H1.58408V5.70666Z" fill="black" stroke="black" stroke-width="0.124964"/>
</g>
</svg>
