<svg width="30" height="29" viewBox="0 0 30 29" fill="none" xmlns="http://www.w3.org/2000/svg">
<g clip-path="url(#clip0_157_439)">
<mask id="mask0_157_439" style="mask-type:luminance" maskUnits="userSpaceOnUse" x="0" y="0" width="30" height="29">
<path d="M29.3643 0H0.63562V28.7287H29.3643V0Z" fill="white"/>
</mask>
<g mask="url(#mask0_157_439)">
<path d="M18.6898 0H11.3101C7.41887 0 5.47328 0 4.00881 0.805099C2.92645 1.40013 2.03575 2.29083 1.44072 3.37319C0.63562 4.83766 0.63562 6.78325 0.63562 10.6745V18.0542C0.63562 21.9455 0.63562 23.891 1.44072 25.3555C2.03575 26.4379 2.92645 27.3286 4.00881 27.9236C5.47328 28.7287 7.41887 28.7287 11.3101 28.7287H18.6898C22.5811 28.7287 24.5267 28.7287 25.9911 27.9236C27.0735 27.3286 27.9642 26.4379 28.5592 25.3555C29.3643 23.891 29.3643 21.9455 29.3643 18.0542V10.6745C29.3643 6.78325 29.3643 4.83766 28.5592 3.37319C27.9642 2.29083 27.0735 1.40013 25.9911 0.805099C24.5267 0 22.5811 0 18.6898 0Z" fill="#FF5700"/>
<path fill-rule="evenodd" clip-rule="evenodd" d="M22.5183 5.4989V7.23836H24.3139V12.625H22.5183V16.1038H24.3139V21.4905H22.5183V23.2299H6.58289V5.4989H22.5183ZM18.1417 16.1038C16.6542 16.1038 15.4484 17.3097 15.4484 18.7971C15.4484 20.2847 16.6542 21.4905 18.1417 21.4905C19.6292 21.4905 20.835 20.2847 20.835 18.7971C20.835 17.3097 19.6292 16.1038 18.1417 16.1038ZM18.1417 7.23836C16.6542 7.23836 15.4484 8.44416 15.4484 9.93168C15.4484 11.4191 16.6542 12.625 18.1417 12.625C19.6292 12.625 20.835 11.4191 20.835 9.93168C20.835 8.44416 19.6292 7.23836 18.1417 7.23836Z" fill="white"/>
</g>
</g>
<defs>
<clipPath id="clip0_157_439">
<rect width="28.7287" height="28.7287" fill="white" transform="translate(0.63562)"/>
</clipPath>
</defs>
</svg>
