<svg width="24" height="24" viewBox="0 0 24 24" fill="none" xmlns="http://www.w3.org/2000/svg">
<path d="M16.9694 14.44C18.3394 14.67 19.8494 14.43 20.9094 13.72C22.3194 12.78 22.3194 11.24 20.9094 10.3C19.8394 9.59002 18.3094 9.35001 16.9394 9.59001M6.99945 14.44C5.62945 14.67 4.11945 14.43 3.05945 13.72C1.64945 12.78 1.64945 11.24 3.05945 10.3C4.12945 9.59002 5.65945 9.35001 7.02945 9.59001M17.9995 7.16C17.9395 7.15 17.8695 7.15 17.8095 7.16C16.4295 7.11 15.3295 5.98 15.3295 4.58C15.3295 3.15 16.4795 2 17.9095 2C19.3395 2 20.4895 3.16 20.4895 4.58C20.4795 5.98 19.3795 7.11 17.9995 7.16ZM5.96951 7.16C6.02951 7.15 6.09951 7.15 6.15951 7.16C7.53951 7.11 8.63951 5.98 8.63951 4.58C8.63951 3.15 7.48951 2 6.05951 2C4.62951 2 3.47951 3.16 3.47951 4.58C3.48951 5.98 4.58951 7.11 5.96951 7.16ZM11.9995 14.63C11.9395 14.62 11.8695 14.62 11.8095 14.63C10.4295 14.58 9.32945 13.45 9.32945 12.05C9.32945 10.62 10.4795 9.46997 11.9095 9.46997C13.3395 9.46997 14.4895 10.63 14.4895 12.05C14.4795 13.45 13.3795 14.59 11.9995 14.63ZM9.08945 17.78C7.67945 18.72 7.67945 20.26 9.08945 21.2C10.6895 22.27 13.3095 22.27 14.9095 21.2C16.3195 20.26 16.3195 18.72 14.9095 17.78C13.3195 16.72 10.6895 16.72 9.08945 17.78Z" stroke="#00C742" stroke-linecap="round" stroke-linejoin="round"/>
</svg>
