<svg width="146" height="36" viewBox="0 0 146 36" fill="none" xmlns="http://www.w3.org/2000/svg">
<g clip-path="url(#clip0_281_802)">
<path d="M34.1523 17.8458C34.1523 27.4251 26.5066 35.1915 17.0762 35.1915C7.64456 35.1915 0 27.4251 0 17.8458C0 8.26526 7.64515 0.5 17.0762 0.5C26.5066 0.5 34.1523 8.26585 34.1523 17.8458Z" fill="#DA552F"/>
<path d="M19.3528 17.8467H14.515V12.643H19.3528C19.6892 12.643 20.0223 12.7103 20.333 12.841C20.6438 12.9718 20.9262 13.1634 21.164 13.4051C21.4019 13.6467 21.5905 13.9335 21.7193 14.2492C21.848 14.5648 21.9142 14.9032 21.9142 15.2448C21.9142 15.5865 21.848 15.9249 21.7193 16.2405C21.5905 16.5562 21.4019 16.843 21.164 17.0846C20.9262 17.3262 20.6438 17.5179 20.333 17.6487C20.0223 17.7794 19.6892 17.8467 19.3528 17.8467ZM19.3528 9.17383H11.0997V26.5196H14.515V21.3159H19.3528C22.6536 21.3159 25.3295 18.5977 25.3295 15.2448C25.3295 11.892 22.6536 9.17383 19.3528 9.17383Z" fill="white"/>
<path d="M52.0919 15.7254C52.0919 14.7709 51.3701 14.1925 50.4322 14.1925H47.9181V17.2405H50.4328C51.3707 17.2405 52.0919 16.6621 52.0919 15.7254ZM45.5371 23.6271V12.0635H50.7668C53.1986 12.0635 54.522 13.7328 54.522 15.7254C54.522 17.7009 53.1817 19.3696 50.7668 19.3696H47.9181V23.6271H45.5371ZM55.9714 23.6271V15.1969H58.099V16.3038C58.6859 15.5884 59.6757 14.9928 60.682 14.9928V17.1041C60.5301 17.0703 60.3462 17.0536 60.0951 17.0536C59.3908 17.0536 58.4511 17.4618 58.099 17.9909V23.6271H55.9714ZM67.8442 19.3014C67.8442 18.0242 67.1048 16.9172 65.764 16.9172C64.4389 16.9172 63.7024 18.0242 63.7024 19.302C63.7024 20.5958 64.4389 21.7027 65.764 21.7027C67.1048 21.7027 67.8442 20.5958 67.8442 19.3014ZM61.4885 19.3014C61.4885 16.9688 63.098 14.9928 65.764 14.9928C68.4468 14.9928 70.0564 16.9682 70.0564 19.3014C70.0564 21.6345 68.4468 23.6271 65.764 23.6271C63.098 23.6271 61.4885 21.6345 61.4885 19.3014ZM77.2209 20.766V17.8539C76.8687 17.3081 76.0978 16.9172 75.3929 16.9172C74.17 16.9172 73.3314 17.8877 73.3314 19.302C73.3314 20.7316 74.17 21.7027 75.3929 21.7027C76.0978 21.7027 76.8687 21.3118 77.2209 20.766ZM77.2209 23.6271V22.3671C76.5831 23.184 75.7124 23.6271 74.7225 23.6271C72.6943 23.6271 71.135 22.061 71.135 19.3014C71.135 16.6283 72.661 14.9928 74.7225 14.9928C75.6779 14.9928 76.5831 15.4021 77.2209 16.2528V12.0635H79.3665V23.6271H77.2209ZM86.9503 23.6271V22.3837C86.3978 22.9971 85.4255 23.6271 84.1004 23.6271C82.3239 23.6271 81.4858 22.6394 81.4858 21.0383V15.1969H83.6139V20.187C83.6139 21.3284 84.2008 21.7027 85.106 21.7027C85.9271 21.7027 86.5818 21.243 86.9503 20.7654V15.1969H89.0796V23.6271H86.9503ZM90.6786 19.3014C90.6786 16.7814 92.489 14.9928 94.971 14.9928C96.6307 14.9928 97.6363 15.7254 98.173 16.4747L96.7808 17.8023C96.3959 17.2233 95.809 16.9172 95.0714 16.9172C93.7802 16.9172 92.8756 17.8711 92.8756 19.302C92.8756 20.7316 93.7802 21.7027 95.0714 21.7027C95.809 21.7027 96.3959 21.3622 96.7808 20.7998L98.173 22.1286C97.6363 22.8779 96.6307 23.6271 94.971 23.6271C92.489 23.6271 90.6786 21.8392 90.6786 19.3014ZM100.004 21.3622V17.0875H98.663V15.1969H100.004V12.9486H102.134V15.1969H103.775V17.0875H102.134V20.7832C102.134 21.3112 102.401 21.7027 102.871 21.7027C103.188 21.7027 103.492 21.5835 103.608 21.4476L104.062 23.0986C103.743 23.3892 103.173 23.6271 102.284 23.6271C100.792 23.6271 100.004 22.8441 100.004 21.3622ZM117.414 23.6271V18.637H112.132V23.6271H109.753V12.0635H112.132V16.5251H117.414V12.0641H119.811V23.6271H117.414ZM127.431 23.6271V22.3837C126.878 22.9971 125.905 23.6271 124.581 23.6271C122.804 23.6271 121.966 22.6394 121.966 21.0383V15.1969H124.094V20.187C124.094 21.3284 124.681 21.7027 125.587 21.7027C126.408 21.7027 127.062 21.243 127.431 20.7654V15.1969H129.56V23.6271H127.431ZM137.142 23.6271V18.4507C137.142 17.3093 136.556 16.9178 135.65 16.9178C134.812 16.9178 134.175 17.3947 133.806 17.8717V23.6277H131.678V15.1969H133.806V16.2528C134.326 15.64 135.332 14.9928 136.639 14.9928C138.433 14.9928 139.288 16.0143 139.288 17.6148V23.6271H137.142H137.142ZM141.825 21.3622V17.0875H140.486V15.1969H141.826V12.9486H143.956V15.1969H145.598V17.0875H143.956V20.7832C143.956 21.3112 144.223 21.7027 144.693 21.7027C145.011 21.7027 145.314 21.5835 145.431 21.4476L145.883 23.0986C145.565 23.3892 144.994 23.6271 144.106 23.6271C142.614 23.6271 141.825 22.8441 141.825 21.3622Z" fill="#DA552F"/>
</g>
<defs>
<clipPath id="clip0_281_802">
<rect width="146" height="35" fill="white" transform="translate(0 0.5)"/>
</clipPath>
</defs>
</svg>
