<svg width="28" height="28" viewBox="0 0 28 28" fill="none" xmlns="http://www.w3.org/2000/svg">
<path d="M2.33331 14.4089H9.09997C10.885 14.4089 12.11 15.7622 12.11 17.4189V21.1756C12.11 22.8322 10.885 24.1856 9.09997 24.1856H5.34334C3.68667 24.1856 2.33331 22.8322 2.33331 21.1756V14.4089ZM2.33331 14.4089C2.33331 7.35055 3.65168 6.18382 7.61835 3.82715M15.9015 14.4089H22.6682C24.4532 14.4089 25.6782 15.7622 25.6782 17.4189V21.1756C25.6782 22.8322 24.4532 24.1856 22.6682 24.1856H18.9115C17.2549 24.1856 15.9015 22.8322 15.9015 21.1756V14.4089ZM15.9015 14.4089C15.9015 7.35055 17.2199 6.18382 21.1865 3.82715" stroke="#F558ED" stroke-width="2" stroke-linecap="round" stroke-linejoin="round"/>
</svg>
