<svg width="28" height="28" viewBox="0 0 28 28" fill="none" xmlns="http://www.w3.org/2000/svg">
<path d="M25.6665 13.5921H18.8999C17.1149 13.5921 15.8899 12.2387 15.8899 10.5821V6.82538C15.8899 5.16872 17.1149 3.81543 18.8999 3.81543H22.6565C24.3132 3.81543 25.6665 5.16872 25.6665 6.82538V13.5921ZM25.6665 13.5921C25.6665 20.6504 24.3483 21.8168 20.3817 24.1735M12.11 13.5921V6.82538C12.11 5.16872 10.7567 3.81543 9.09999 3.81543H5.33166C3.54666 3.81543 2.32166 5.16872 2.32166 6.82538V10.5821C2.32166 12.2387 3.54666 13.5921 5.33166 13.5921H12.0983C12.0983 20.6504 10.7801 21.8168 6.81344 24.1735" stroke="#F558ED" stroke-width="2" stroke-linecap="round" stroke-linejoin="round"/>
</svg>
