<svg width="34" height="35" viewBox="0 0 34 35" fill="none" xmlns="http://www.w3.org/2000/svg">
<rect y="0.5" width="34" height="34" rx="10" fill="#FFEE00"/>
<path d="M20.4895 13.3611C21.8965 14.3479 22.8673 15.9169 23.0643 17.7272M11.0131 17.7627C11.196 15.9594 12.1528 14.3904 13.5457 13.3965M14.3196 23.8469C15.1357 24.2657 16.0643 24.5 17.0422 24.5C17.9849 24.5 18.8714 24.287 19.6663 23.8965M17.0422 14.4473C18.1224 14.4473 18.998 13.5637 18.998 12.4736C18.998 11.3836 18.1224 10.5 17.0422 10.5C15.9621 10.5 15.0864 11.3836 15.0864 12.4736C15.0864 13.5637 15.9621 14.4473 17.0422 14.4473ZM11.9558 23.1228C13.0359 23.1228 13.9116 22.2391 13.9116 21.1491C13.9116 20.0591 13.0359 19.1755 11.9558 19.1755C10.8756 19.1755 10 20.0591 10 21.1491C10 22.2391 10.8756 23.1228 11.9558 23.1228ZM22.0442 23.1228C23.1244 23.1228 24 22.2391 24 21.1491C24 20.0591 23.1244 19.1755 22.0442 19.1755C20.9641 19.1755 20.0884 20.0591 20.0884 21.1491C20.0884 22.2391 20.9641 23.1228 22.0442 23.1228Z" stroke="black" stroke-linecap="round" stroke-linejoin="round"/>
</svg>
