<svg width="34" height="34" viewBox="0 0 34 34" fill="none" xmlns="http://www.w3.org/2000/svg">
<rect width="34" height="34" rx="10" fill="#FFEE00"/>
<path d="M13.8889 17.15H19.3333M13.8889 20.15H17.2956M20.1111 11.015C22.7011 11.15 24 12.0725 24 15.5V20C24 23 23.2222 24.5 19.3333 24.5H14.6667C10.7778 24.5 10 23 10 20V15.5C10 12.08 11.2989 11.15 13.8889 11.015M15.4445 12.5H18.5556C20.1111 12.5 20.1111 11.75 20.1111 11C20.1111 9.5 19.3333 9.5 18.5556 9.5H15.4445C14.6667 9.5 13.8889 9.5 13.8889 11C13.8889 12.5 14.6667 12.5 15.4445 12.5Z" stroke="#292D32" stroke-miterlimit="10" stroke-linecap="round" stroke-linejoin="round"/>
</svg>
