<svg width="34" height="34" viewBox="0 0 34 34" fill="none" xmlns="http://www.w3.org/2000/svg">
<rect width="34" height="34" rx="10" fill="#FFEE00"/>
<g clip-path="url(#clip0_138_668)">
<path d="M17.6435 10.1631L22.2007 12.6259C22.7327 12.9136 22.7327 13.7345 22.2007 14.0222L17.6435 16.485C17.2375 16.7026 16.7615 16.7026 16.3555 16.485L11.7983 14.0222C11.2663 13.7345 11.2663 12.9136 11.7983 12.6259L16.3555 10.1631C16.7615 9.94562 17.2375 9.94562 17.6435 10.1631Z" stroke="#292D32" stroke-width="0.875" stroke-linecap="round" stroke-linejoin="round"/>
<path d="M11.127 15.6854L15.3622 17.8114C15.8872 18.078 16.2232 18.6183 16.2232 19.2077V23.2212C16.2232 23.8036 15.6142 24.1755 15.0962 23.9159L10.861 21.7898C10.336 21.5232 10 20.9829 10 20.3935V16.38C10 15.7977 10.609 15.4258 11.127 15.6854Z" stroke="#292D32" stroke-width="0.875" stroke-linecap="round" stroke-linejoin="round"/>
<path d="M22.873 15.6853L18.6378 17.8113C18.1128 18.0779 17.7768 18.6182 17.7768 19.2076V23.2211C17.7768 23.8035 18.3858 24.1754 18.9038 23.9157L23.139 21.7897C23.664 21.523 24 20.9828 24 20.3934V16.3799C24 15.7976 23.391 15.4257 22.873 15.6853Z" stroke="#292D32" stroke-width="0.875" stroke-linecap="round" stroke-linejoin="round"/>
</g>
<defs>
<clipPath id="clip0_138_668">
<rect width="16" height="15" fill="white" transform="translate(9 9.5)"/>
</clipPath>
</defs>
</svg>
