<svg width="51" height="50" viewBox="0 0 51 50" fill="none" xmlns="http://www.w3.org/2000/svg">
<path d="M46.3333 21.875V32.2917C46.3333 39.5833 42.1666 42.7083 35.9166 42.7083H15.0833C8.83329 42.7083 4.66663 39.5833 4.66663 32.2917V17.7083C4.66663 10.4167 8.83329 7.29166 15.0833 7.29166H29.6666M15.0833 18.75L21.6041 23.9583C23.75 25.6667 27.2708 25.6667 29.4166 23.9583L31.875 22M41.1249 16.6667C44.0014 16.6667 46.3333 14.3348 46.3333 11.4583C46.3333 8.58185 44.0014 6.25 41.1249 6.25C38.2485 6.25 35.9166 8.58185 35.9166 11.4583C35.9166 14.3348 38.2485 16.6667 41.1249 16.6667Z" stroke="#00C742" stroke-width="2" stroke-miterlimit="10" stroke-linecap="round" stroke-linejoin="round"/>
</svg>
