<svg width="34" height="34" viewBox="0 0 34 34" fill="none" xmlns="http://www.w3.org/2000/svg">
<rect width="34" height="34" rx="10" fill="#FFEE00"/>
<path d="M14.2001 12.1489H10M12.1001 21.8399H10M10.7 16.9944H10M19.3733 12.2943L20.3602 14.2463C20.4932 14.5163 20.8502 14.7724 21.1512 14.8278L22.9364 15.1185C24.0774 15.3054 24.3434 16.1222 23.5244 16.939L22.1313 18.3165C21.9003 18.545 21.7673 18.9949 21.8443 19.3202L22.2433 21.0231C22.5583 22.366 21.8303 22.8921 20.6333 22.186L18.9602 21.2031C18.6592 21.0231 18.1552 21.0231 17.8542 21.2031L16.1811 22.186C14.9841 22.8851 14.2561 22.366 14.5711 21.0231L14.9701 19.3202C15.0471 19.0018 14.9141 18.5519 14.6831 18.3165L13.2901 16.939C12.4711 16.1292 12.7371 15.3123 13.8781 15.1185L15.6631 14.8278C15.9641 14.7793 16.3212 14.5163 16.4542 14.2463L17.4412 12.2943C17.9662 11.2352 18.8342 11.2352 19.3733 12.2943Z" stroke="#292D32" stroke-linecap="round" stroke-linejoin="round"/>
</svg>
