<svg width="48" height="48" viewBox="0 0 48 48" fill="none" xmlns="http://www.w3.org/2000/svg">
<rect width="48" height="48" rx="5" fill="#FFEE00"/>
<path d="M26.875 14.9H21.125M35.5 17V31C35.5 36.6 34.0625 38 28.3125 38H19.6875C13.9375 38 12.5 36.6 12.5 31V17C12.5 11.4 13.9375 10 19.6875 10H28.3125C34.0625 10 35.5 11.4 35.5 17ZM23.9999 33.94C25.2305 33.94 26.2281 32.9684 26.2281 31.77C26.2281 30.5716 25.2305 29.6 23.9999 29.6C22.7694 29.6 21.7718 30.5716 21.7718 31.77C21.7718 32.9684 22.7694 33.94 23.9999 33.94Z" stroke="black" stroke-width="1.5" stroke-linecap="round" stroke-linejoin="round"/>
</svg>
