<svg width="34" height="34" viewBox="0 0 34 34" fill="none" xmlns="http://www.w3.org/2000/svg">
<rect width="34" height="34" rx="10" fill="#FFEE00"/>
<path d="M10 14.9V13.15C10 11.407 11.407 10 13.15 10H14.9M19.1 10H20.85C22.593 10 24 11.407 24 13.15V14.9M24 19.8V20.85C24 22.593 22.593 24 20.85 24H19.8M14.9 24H13.15C11.407 24 10 22.593 10 20.85V19.1M15.95 13.5V14.9C15.95 15.6 15.6 15.95 14.9 15.95H13.5C12.8 15.95 12.45 15.6 12.45 14.9V13.5C12.45 12.8 12.8 12.45 13.5 12.45H14.9C15.6 12.45 15.95 12.8 15.95 13.5ZM21.55 13.5V14.9C21.55 15.6 21.2 15.95 20.5 15.95H19.1C18.4 15.95 18.05 15.6 18.05 14.9V13.5C18.05 12.8 18.4 12.45 19.1 12.45H20.5C21.2 12.45 21.55 12.8 21.55 13.5ZM15.95 19.1V20.5C15.95 21.2 15.6 21.55 14.9 21.55H13.5C12.8 21.55 12.45 21.2 12.45 20.5V19.1C12.45 18.4 12.8 18.05 13.5 18.05H14.9C15.6 18.05 15.95 18.4 15.95 19.1ZM21.55 19.1V20.5C21.55 21.2 21.2 21.55 20.5 21.55H19.1C18.4 21.55 18.05 21.2 18.05 20.5V19.1C18.05 18.4 18.4 18.05 19.1 18.05H20.5C21.2 18.05 21.55 18.4 21.55 19.1Z" stroke="#292D32" stroke-linecap="round" stroke-linejoin="round"/>
</svg>
