<svg width="100%" height="100%" preserveAspectRatio="none" viewBox="0 0 1760 785" fill="none" xmlns="http://www.w3.org/2000/svg">
<path d="M0.5 0.5V784.5H57.5V753.5H113.496V784.5H160.5V753.5H216.5V784.5H269.5V698.5H311.5V664.5H366.5V698.5H413.5V664.5H476.5V698.5H517.543V699L517.5 784.5H564.5V753.5H627.5V784.5H673.5V753.5H733.5V784.5H773.5V753.5H832.5V784.5H882.5V753.5H942.5V784.5H985.5V698.5H1033.5V664.5H1086.5V698.5H1136.5V664.5H1192.5V698.5H1242.5V588.5H1286.5V550.5H1346.5V588.5H1389.5V550.5H1452.5V588.5H1493.5V784.5H1543.5V753.5H1603.5V784.5H1646.5V753.5H1705.5V784.5H1759.5V0.5H0.5Z" fill="url(#paint0_linear_170_63)" stroke="black"/>
<defs>
<linearGradient id="paint0_linear_170_63" x1="559.5" y1="-1.04415e-07" x2="545.5" y2="785" gradientUnits="userSpaceOnUse">
<stop stop-color="white"/>
<stop offset="1" stop-color="#E8E3CE"/>
</linearGradient>
</defs>
</svg>
