<svg width="1760" height="785" preserveAspectRatio="none" viewBox="0 0 1760 785" fill="none" xmlns="http://www.w3.org/2000/svg">
<g clip-path="url(#clip0_422_2)">
<path d="M0.5 0.5V784.5H57.5V753.5H113.496V784.5H160.5V753.5H216.5V784.5H269.5V698.5H311.5V664.5H366.5V698.5H413.5V664.5H476.5V698.5H517.543V699L517.5 784.5H564.5V753.5H627.5V784.5H673.5V753.5H733.5V784.5H773.5V753.5H832.5V784.5H882.5V753.5H942.5V784.5H985.5V698.5H1033.5V664.5H1086.5V698.5H1136.5V664.5H1192.5V698.5H1242.5V588.5H1286.5V550.5H1346.5V588.5H1389.5V550.5H1452.5V588.5H1493.5V784.5H1543.5V753.5H1603.5V784.5H1646.5V753.5H1705.5V784.5H1759.5V0.5H0.5Z" fill="url(#paint0_linear_422_2)" stroke="black"/>
<mask id="path-3-inside-1_422_2" fill="white">
<path d="M0 40C0 17.9086 17.9086 0 40 0H1720C1742.09 0 1760 17.9086 1760 40V785H0V40Z"/>
</mask>
<path d="M-1 40C-1 17.3563 17.3563 -1 40 -1H1720C1742.64 -1 1761 17.3563 1761 40H1759C1759 18.4609 1741.54 1 1720 1H40C18.4609 1 1 18.4609 1 40H-1ZM1760 785H0H1760ZM-1 785V40C-1 17.3563 17.3563 -1 40 -1V1C18.4609 1 1 18.4609 1 40V785H-1ZM1720 -1C1742.64 -1 1761 17.3563 1761 40V785H1759V40C1759 18.4609 1741.54 1 1720 1V-1Z" fill="black" mask="url(#path-3-inside-1_422_2)"/>
</g>
<defs>
<linearGradient id="paint0_linear_422_2" x1="559.5" y1="-1.04415e-07" x2="545.5" y2="785" gradientUnits="userSpaceOnUse">
<stop stop-color="white"/>
<stop offset="1" stop-color="#E8E3CE"/>
</linearGradient>
<clipPath id="clip0_422_2">
<path d="M0 40C0 17.9086 17.9086 0 40 0H1720C1742.09 0 1760 17.9086 1760 40V785H0V40Z" fill="white"/>
</clipPath>
</defs>
</svg>
