<svg width="17" height="15" viewBox="0 0 17 15" fill="none" xmlns="http://www.w3.org/2000/svg">
<path d="M0.81816 15C0.666326 15 0.528295 14.9619 0.404067 14.8858C0.279839 14.8097 0.183218 14.7089 0.114202 14.5833C0.0451867 14.4578 0.00736623 14.3222 0.000740739 14.1766C-0.00588475 14.0311 0.0319357 13.8889 0.114202 13.75L7.77493 0.416666C7.85774 0.277777 7.96486 0.173611 8.09626 0.104167C8.22767 0.0347222 8.36211 0 8.49959 0C8.63707 0 8.77179 0.0347222 8.90374 0.104167C9.0357 0.173611 9.14254 0.277777 9.22425 0.416666L16.885 13.75C16.9678 13.8889 17.0059 14.0314 16.9993 14.1775C16.9926 14.3236 16.9545 14.4589 16.885 14.5833C16.8154 14.7078 16.7188 14.8086 16.5951 14.8858C16.4714 14.963 16.3334 15.0011 16.181 15H0.81816ZM8.49959 12.5C8.73424 12.5 8.93107 12.42 9.09009 12.26C9.2491 12.1 9.32833 11.9022 9.32778 11.6666C9.32722 11.4311 9.24772 11.2333 9.08926 11.0733C8.9308 10.9133 8.73424 10.8333 8.49959 10.8333C8.26494 10.8333 8.06838 10.9133 7.90992 11.0733C7.75146 11.2333 7.67195 11.4311 7.6714 11.6666C7.67085 11.9022 7.75036 12.1003 7.90992 12.2608C8.06948 12.4214 8.26604 12.5011 8.49959 12.5ZM8.49959 9.99998C8.73424 9.99998 8.93107 9.91998 9.09009 9.75998C9.2491 9.59998 9.32833 9.40221 9.32778 9.16665V6.66666C9.32778 6.43055 9.24827 6.23277 9.08926 6.07332C8.93025 5.91388 8.73369 5.83388 8.49959 5.83332C8.26549 5.83277 8.06893 5.91277 7.90992 6.07332C7.75091 6.23388 7.6714 6.43166 7.6714 6.66666V9.16665C7.6714 9.40276 7.75091 9.60082 7.90992 9.76082C8.06893 9.92082 8.26549 10.0005 8.49959 9.99998Z" fill="#FFEE00"/>
</svg>
